<?xml version="1.0" encoding="utf-8"?>
<svg xmlns="http://www.w3.org/2000/svg" role="img" aria-labelledby="title desc" viewBox="0 0 248 50" width="1488" height="300">
  <title id="title">Airbus A310-300 fuselage - tail left, nose right</title>
  <desc id="desc">Original plan-view vector geometry isolated from the supplied Airbus A310-300 DXF and cropped around the fuselage for hold and cabin overlays.</desc>
  <g transform="translate(4 25) scale(0.00514338794) translate(-13765.71094 594.5) rotate(-90) scale(1,-1)" fill="none" stroke="#858b92" stroke-width="34" stroke-linejoin="round" stroke-linecap="round">
    <path d="M 8531.28223,-42284.19531 L 8532.07031,-42237.73047" />
    <path d="M 8089.80518,-44306.72656 L 8089.72998,-44311.04688" />
    <path d="M 8074.89648,-45250.57031 L 8086.99365,-44512.54688" />
    <path d="M -7345.70361,-42080.37271 L -7343.07031,-42237.72656" />
    <path d="M -7342.28223,-42284.19531 L -7307.14307,-44313.82031" />
    <path d="M 8489.95898,-44639.28906 L 8485.64062,-44981.94531" />
    <path d="M 8475.95703,-45303.64062 L 8468.00523,-45454.04864" />
    <path d="M 8496.14258,-44313.82031 L 8531.28223,-42284.19531" />
    <path d="M 8089.80518,-44306.72656 L 8088.89160,-44389.55859" />
    <path d="M 8074.89648,-45250.57031 L 8076.31104,-45342.64844" />
    <path d="M 8088.56055,-44415.88281 L 8086.72363,-44529.22656" />
    <path d="M 8088.56055,-44415.88281 L 8089.25781,-44360.61719" />
    <path d="M 8076.31104,-45342.64844 L 8077.55469,-45388.59375" />
    <path d="M 8079.33350,-45432.27344 L 8077.55469,-45388.59375" />
    <path d="M 7931.35449,-43548.28516 L 7977.86523,-43548.85938" />
    <path d="M 8482.78613,-45120.89062 L 8485.64062,-44981.94531" />
    <path d="M 8481.33203,-45170.89844 L 8482.78613,-45120.89062" />
    <path d="M 8479.59766,-45220.68750 L 8481.33203,-45170.89844" />
    <path d="M 8491.45703,-44536.28906 L 8496.14258,-44313.82031" />
    <path d="M 8491.45703,-44536.28906 L 8489.77930,-44651.63281" />
    <path d="M 8475.95703,-45303.64062 L 8479.59766,-45220.68750" />
    <path d="M -7044.92285,-47693.30078 L -7066.82812,-47693.41406 L -7088.67334,-47693.52344 L -7110.45703,-47693.63672 L -7132.17822,-47693.75000 L -7153.83594,-47693.85938 L -7175.42871,-47693.96875 L -7196.95410,-47694.07812 L -7218.41113,-47694.17969 L -7239.79785,-47694.28125 L -7261.11084,-47694.37109 L -7282.34814,-47694.46094 L -7303.50781,-47694.53906 L -7324.58594,-47694.60938 L -7345.58008,-47694.67578 L -7366.48730,-47694.73047 L -7387.30371,-47694.77734 L -7408.02637,-47694.81250 L -7428.65137,-47694.83594 L -7449.17480,-47694.85156 L -7469.59375,-47694.85547 L -7489.90332,-47694.84375 L -7510.09961,-47694.82422 L -7530.17822,-47694.78906 L -7550.13574,-47694.74219 L -7569.96680,-47694.67969 L -7589.66699,-47694.60156 L -7609.23242,-47694.51562 L -7628.65723,-47694.40625 L -7647.93750,-47694.28906 L -7667.06836,-47694.14844 L -7686.04395,-47694.00000 L -7704.86035,-47693.82812 L -7723.51270,-47693.64453 L -7741.99512,-47693.44531 L -7760.30176,-47693.22656 L -7778.42969,-47692.99219 L -7796.37109,-47692.73828 L -7814.12305,-47692.46875 L -7831.67773,-47692.17969 L -7849.03223,-47691.87500 L -7866.17969,-47691.55469 L -7883.11523,-47691.21484 L -7899.83301,-47690.85938 L -7916.32812,-47690.48438 L -7932.59570,-47690.08594 L -7948.62891,-47689.67578 L -7964.42285,-47689.24609 L -7979.97363,-47688.79688 L -7995.27344,-47688.33203 L -8010.31836,-47687.84766 L -8025.10254,-47687.34375 L -8039.62109,-47686.82812 L -8053.86816,-47686.28906 L -8067.83887,-47685.73438 L -8081.52734,-47685.15625 L -8094.92969,-47684.56641 L -8108.04004,-47683.95703 L -8120.85254,-47683.32812 L -8133.36328,-47682.68750 L -8145.56641,-47682.02344 L -8157.45801,-47681.34375 L -8169.03223,-47680.64844 L -8180.28516,-47679.93750 L -8191.21094,-47679.21094 L -8201.80566,-47678.46094 L -8212.06445,-47677.70312 L -8221.98340,-47676.92188 L -8231.55664,-47676.12891 L -8240.78125,-47675.32031 L -8249.65234,-47674.49219 L -8258.16602,-47673.65234 L -8266.31836,-47672.79688 L -8274.10449,-47671.92578 L -8281.52051,-47671.03906 L -8288.56348,-47670.14062 L -8295.22949,-47669.22656 L -8300.64062,-47668.43359 L -8305.76953,-47667.62891 L -8310.61426,-47666.81641 L -8315.17383,-47665.99219 L -8319.44434,-47665.15625 L -8323.42578,-47664.31641 L -8327.11426,-47663.46484 L -8330.50977,-47662.60156 L -8333.60938,-47661.73438 L -8336.41211,-47660.85938 L -8338.91602,-47659.96875 L -8341.12012,-47659.07812 L -8343.02246,-47658.17188 L -8344.62109,-47657.26562 L -8346.07422,-47656.21875 L -8347.12793,-47655.15625 L -8347.78125,-47654.09375" />
    <path d="M -8347.78125,-47654.09375 L -8359.47266,-47616.01562 L -8370.55469,-47577.85938 L -8381.16797,-47539.27344 L -8391.30566,-47500.39844 L -8401.02051,-47460.99219 L -8408.78711,-47427.78906 L -8416.25098,-47394.37500 L -8423.42480,-47360.69531 L -8428.52930,-47336.07812 L -8433.58984,-47310.50000 L -8442.11523,-47264.71484 L -8450.10742,-47219.20312 L -8457.41992,-47174.78125 L -8457.65137,-47173.28906 L -8464.60449,-47128.45312 L -8469.13672,-47097.51562 L -8473.48633,-47066.41406 L -8477.69922,-47034.82422 L -8481.73340,-47003.07812 L -8488.64258,-46944.77344 L -8494.98926,-46885.97266 L -8500.79395,-46826.69922 L -8506.07617,-46766.97656 L -8509.25684,-46727.68750 L -8512.22852,-46688.22656 L -8515.09863,-46647.04688 L -8517.75293,-46605.70703 L -8522.35938,-46524.05859 L -8524.74805,-46474.87500 L -8526.86816,-46425.48438 L -8528.73730,-46375.71875 L -8530.35156,-46325.76562 L -8532.84766,-46225.56250 L -8534.41406,-46124.75781 L -8535.12012,-46023.48438 L -8535.15137,-45961.25391 L -8534.91309,-45898.00000 L -8534.37012,-45833.80469 L -8533.53418,-45769.51562 L -8531.04395,-45641.60156 L -8527.50488,-45513.59375 L -8522.98047,-45385.68750 L -8517.52051,-45258.04297 L -8511.16895,-45130.84375 L -8503.95801,-45004.26562 L -8495.91211,-44878.48438 L -8487.04395,-44753.67188 L -8477.35840,-44630.00000 L -8466.85254,-44507.64844 L -8455.51074,-44386.78906 L -8443.30957,-44267.58594 L -8436.87695,-44208.66406 L -8430.21680,-44150.22266 L -8420.97266,-44073.07812 L -8411.29883,-43996.87891 L -8401.17871,-43921.67188 L -8389.23633,-43838.30469 L -8376.67578,-43756.33594 L -8363.46582,-43675.82031 L -8356.60645,-43636.13281 L -8349.57129,-43596.83984" />
    <path d="M 6933.22705,-47608.64844 L 6938.74463,-47621.37500 L 6943.76123,-47631.21094 L 6944.29443,-47632.14062 L 6950.21240,-47641.96875 L 6956.43115,-47650.81250 L 6962.90918,-47658.64453 L 6969.60791,-47665.46094" />
    <path d="M 6978.51904,-47673.14062 L 6985.56006,-47677.91016 L 6988.40381,-47679.66406 L 6995.27930,-47683.25781 L 6998.62256,-47684.87891 L 7002.73389,-47686.50781 L 7007.41943,-47688.26953 L 7012.81543,-47690.24219 L 7019.30029,-47692.22266 L 7026.86133,-47694.20312 L 7034.08057,-47695.95703 L 7042.67432,-47697.95312 L 7052.31055,-47699.94922 L 7062.97559,-47701.94531 L 7074.65283,-47703.93750 L 7087.32715,-47705.92188 L 7100.98096,-47707.90625 L 7115.59717,-47709.87891 L 7131.15674,-47711.83984 L 7142.38721,-47713.18750 L 7151.11719,-47714.22656 L 7169.33740,-47716.29297 L 7188.55127,-47718.34375 L 7208.73486,-47720.37500 L 7229.86182,-47722.38672 L 7251.90674,-47724.37500 L 7274.84229,-47726.34375 L 7298.64160,-47728.28516 L 7323.27734,-47730.20312 L 7348.72021,-47732.08594 L 7374.94238,-47733.94531 L 7401.91406,-47735.77344 L 7429.60693,-47737.56641 L 7454.91797,-47739.14062 L 7480.75830,-47740.68359 L 7507.10742,-47742.19922 L 7533.94336,-47743.68750 L 7561.24512,-47745.14062 L 7588.99170,-47746.56250 L 7617.16064,-47747.95312 L 7633.77637,-47748.75000 L 7650.52441,-47749.53125 L 7667.40723,-47750.30469 L 7684.41357,-47751.06250 L 7718.77637,-47752.54688 L 7753.58447,-47753.98047 L 7788.80664,-47755.36328 L 7824.40967,-47756.69531 L 7860.36133,-47757.96875 L 7896.63184,-47759.19141 L 7933.18896,-47760.35938 L 7970.00439,-47761.46484 L 8007.04834,-47762.51562 L 8044.29297,-47763.50781 L 8081.71191,-47764.43750 L 8119.27881,-47765.30469 L 8156.96875,-47766.10938 L 8194.75977,-47766.85156 L 8232.62598,-47767.60156" />
    <path d="M -6900.80518,-44306.72656 L -6935.67871,-42323.21094" />
    <path d="M -8347.78125,-47654.09375 L -8329.64258,-47686.80469 L -8323.12012,-47695.42188 L -8316.37207,-47703.02344 L -8309.43945,-47709.60156" />
    <path d="M -7043.62598,-47767.60156 L -7081.49609,-47768.17188 L -7119.28906,-47768.75000 L -7156.98438,-47769.26172 L -7194.55859,-47769.70312 L -7231.98730,-47770.08203 L -7269.24414,-47770.39062 L -7306.30225,-47770.63281 L -7343.13330,-47770.81250 L -7379.70947,-47770.92188 L -7416.00000,-47770.96875 L -7451.97461,-47770.94531 L -7487.60254,-47770.85938 L -7522.85107,-47770.70703 L -7557.68848,-47770.49219 L -7592.08154,-47770.20703 L -7609.10449,-47770.03906 L -7626.00391,-47769.85938 L -7642.76855,-47769.65625 L -7659.40234,-47769.44531 L -7687.60254,-47769.03906 L -7715.38184,-47768.58594 L -7742.71777,-47768.08594 L -7769.58984,-47767.53516 L -7795.97559,-47766.93750 L -7821.85449,-47766.29688 L -7847.20410,-47765.60938 L -7874.94238,-47764.78125 L -7901.96191,-47763.89844 L -7928.23340,-47762.95703 L -7953.72656,-47761.96094 L -7978.41309,-47760.90625 L -8002.26660,-47759.79688 L -8025.25684,-47758.62891 L -8047.35742,-47757.41016 L -8068.54199,-47756.13672 L -8088.78418,-47754.81250 L -8108.05762,-47753.42969 L -8126.33887,-47752.00000 L -8135.09961,-47751.26953 L -8146.37012,-47750.31641 L -8161.98926,-47748.89844 L -8176.66504,-47747.43750 L -8190.37988,-47745.92969 L -8203.11523,-47744.39062 L -8214.85547,-47742.80469 L -8225.58398,-47741.18359 L -8235.28418,-47739.52344 L -8243.94238,-47737.82812 L -8251.21777,-47736.32812 L -8258.84375,-47734.60938 L -8265.39355,-47732.85938 L -8270.85449,-47731.07812 L -8275.59863,-47729.47656 L -8279.76465,-47727.99609 L -8283.16309,-47726.49219 L -8290.15918,-47723.14062 L -8293.06250,-47721.48438 L -8300.26562,-47716.96875" />
    <path d="M 8233.92285,-47693.30078 L 8212.02734,-47692.64844 L 8190.19141,-47692.00000 L 8168.41748,-47691.35156 L 8146.70508,-47690.70312 L 8125.05713,-47690.06250 L 8103.47363,-47689.41406 L 8081.95703,-47688.77344 L 8060.50977,-47688.12500 L 8039.13281,-47687.47656 L 8017.82959,-47686.82812 L 7996.60205,-47686.17188 L 7975.45264,-47685.51562 L 7954.38477,-47684.85156 L 7933.40088,-47684.17969 L 7912.50488,-47683.50781 L 7891.69922,-47682.82812 L 7870.98828,-47682.14062 L 7850.37500,-47681.44531 L 7829.86328,-47680.74219 L 7809.45703,-47680.03125 L 7789.16016,-47679.31641 L 7768.97656,-47678.58984 L 7748.91113,-47677.85156 L 7728.96777,-47677.10938 L 7709.15137,-47676.35547 L 7689.46533,-47675.59375 L 7669.91553,-47674.82031 L 7650.50586,-47674.03516 L 7631.24170,-47673.24219 L 7612.12744,-47672.43750 L 7593.16846,-47671.62500 L 7574.36914,-47670.79688 L 7555.73486,-47669.96094 L 7537.27100,-47669.11719 L 7518.98242,-47668.25781 L 7500.87451,-47667.39062 L 7482.95215,-47666.51562 L 7465.22119,-47665.62500 L 7447.68652,-47664.72656 L 7430.35352,-47663.81250 L 7413.22754,-47662.89453 L 7396.31445,-47661.96484 L 7379.61865,-47661.02344 L 7363.14648,-47660.07031 L 7346.90332,-47659.10938 L 7330.89404,-47658.14062 L 7315.12451,-47657.15625 L 7299.59961,-47656.16797 L 7284.32520,-47655.16797 L 7269.30615,-47654.16016 L 7254.54883,-47653.14062 L 7240.05713,-47652.11719 L 7225.83740,-47651.07812 L 7211.89502,-47650.03906 L 7198.23438,-47648.98438 L 7184.86084,-47647.92969 L 7171.78027,-47646.85938 L 7158.99707,-47645.78906 L 7146.51611,-47644.70703 L 7134.34326,-47643.61719 L 7122.48291,-47642.52734 L 7110.93994,-47641.42969 L 7099.71875,-47640.32031 L 7088.82520,-47639.21094 L 7078.26270,-47638.09766 L 7068.03662,-47636.97656 L 7058.15137,-47635.85156 L 7048.61133,-47634.72656 L 7039.42041,-47633.59375 L 7030.58350,-47632.46094 L 7022.10449,-47631.32422 L 7013.98779,-47630.18359 L 7006.23682,-47629.03906 L 6998.85547,-47627.89844 L 6991.84814,-47626.75391 L 6985.21826,-47625.60938 L 6979.83838,-47624.62500 L 6974.74023,-47623.64062 L 6969.92676,-47622.66016 L 6965.39941,-47621.67969 L 6961.16016,-47620.69531 L 6957.21094,-47619.71484 L 6953.55371,-47618.73438 L 6950.19043,-47617.75781 L 6947.12305,-47616.78125 L 6944.35254,-47615.80469 L 6941.88086,-47614.83203 L 6939.70996,-47613.85938 L 6937.84082,-47612.89062 L 6936.27441,-47611.92969 L 6934.85889,-47610.82812 L 6933.84229,-47609.73438 L 6933.22705,-47608.64844" />
    <path d="M 6933.22705,-47608.64844 L 6922.87158,-47570.18750 L 6913.12793,-47531.66406 L 6903.86768,-47492.73438 L 6895.09229,-47453.53125 L 6886.75879,-47413.80469 L 6880.15625,-47380.35156 L 6873.86328,-47346.69531 L 6867.86865,-47312.78906 L 6863.62646,-47288.00781 L 6859.46143,-47262.27344 L 6852.53906,-47216.21484 L 6846.14062,-47170.45312 L 6840.38281,-47125.80469 L 6840.20312,-47124.30469 L 6834.81885,-47079.25000 L 6831.36963,-47048.17188 L 6828.10840,-47016.93750 L 6825.00000,-46985.22266 L 6822.07617,-46953.35156 L 6817.20654,-46894.84375 L 6812.91553,-46835.85938 L 6809.18311,-46776.41797 L 6805.98828,-46716.54688 L 6804.18018,-46677.17188 L 6802.58838,-46637.63281 L 6801.15674,-46596.37500 L 6799.94678,-46554.96875 L 6798.19238,-46473.21094 L 6797.52246,-46423.96875 L 6797.12646,-46374.53906 L 6796.99609,-46324.73438 L 6797.12549,-46274.75781 L 6798.12793,-46174.52734 L 6800.08008,-46073.72656 L 6802.90918,-45972.49219 L 6805.05029,-45910.30078 L 6807.49609,-45847.09375 L 6810.27881,-45782.95312 L 6813.35742,-45718.73438 L 6820.31104,-45590.98438 L 6828.31494,-45463.18359 L 6837.30078,-45335.50781 L 6847.21143,-45208.13281 L 6857.99854,-45081.23438 L 6869.62256,-44954.98438 L 6882.05371,-44829.55859 L 6895.27246,-44705.13281 L 6909.26758,-44581.87500 L 6924.03760,-44459.96875 L 6939.59033,-44339.57422 L 6955.94385,-44220.87500 L 6964.42871,-44162.21094 L 6973.12451,-44104.03125 L 6985.05518,-44027.26172 L 6997.38281,-43951.44531 L 7010.12158,-43876.63281 L 7024.96631,-43793.73828 L 7040.37939,-43712.25391 L 7056.39111,-43632.25000 L 7064.63184,-43592.82812 L 7073.03418,-43553.80469" />
    <path d="M -7342.28223,-42284.19531 L -7343.07080,-42237.73047" />
    <path d="M -6891.68799,-44803.59375 L -6897.99121,-44512.67188" />
    <path d="M -6742.35449,-43548.28516 L -6788.86523,-43548.85938" />
    <path d="M -5744.22705,-47608.64844 L -5749.74463,-47621.37500 L -5752.22321,-47626.23469 L -5755.29443,-47632.14062 L -5761.21240,-47641.96875 L -5767.43115,-47650.81250 L -5773.90918,-47658.64453 L -5780.60791,-47665.46094" />
    <path d="M -5789.51904,-47673.14062 L -5796.56006,-47677.91016 L -5799.40381,-47679.66406 L -5806.27930,-47683.25781 L -5809.62256,-47684.87891 L -5813.73389,-47686.50781 L -5818.41943,-47688.26953 L -5823.81543,-47690.24219 L -5830.30029,-47692.22266 L -5837.86133,-47694.20312 L -5845.08057,-47695.95703 L -5853.67432,-47697.95312 L -5863.31055,-47699.94922 L -5873.97559,-47701.94531 L -5885.65283,-47703.93750 L -5898.32715,-47705.92188 L -5911.98096,-47707.90625 L -5926.59717,-47709.87891 L -5942.15674,-47711.83984 L -5953.38721,-47713.18750 L -5962.11719,-47714.22656 L -5980.33740,-47716.29297 L -5999.55127,-47718.34375 L -6019.73486,-47720.37500 L -6040.86182,-47722.38672 L -6062.90674,-47724.37500 L -6085.84229,-47726.34375 L -6109.64160,-47728.28516 L -6134.27734,-47730.20312 L -6159.72021,-47732.08594 L -6185.94238,-47733.94531 L -6212.91406,-47735.77344 L -6240.60693,-47737.56641 L -6265.91797,-47739.14062 L -6291.75830,-47740.68359 L -6318.10742,-47742.19922 L -6344.94336,-47743.68750 L -6372.24512,-47745.14062 L -6399.99170,-47746.56250 L -6428.16064,-47747.95312 L -6444.77637,-47748.75000 L -6461.52441,-47749.53125 L -6478.40723,-47750.30469 L -6495.41357,-47751.06250 L -6529.77637,-47752.54688 L -6564.58447,-47753.98047 L -6599.80664,-47755.36328 L -6635.40967,-47756.69531 L -6671.36133,-47757.96875 L -6707.63184,-47759.19141 L -6744.18896,-47760.35938 L -6781.00439,-47761.46484 L -6818.04834,-47762.51562 L -6855.29297,-47763.50781 L -6892.71191,-47764.43750 L -6930.27881,-47765.30469 L -6967.96875,-47766.10938 L -7005.75928,-47766.85156 L -7043.62598,-47767.60156" />
    <path d="M -6900.80518,-44306.72656 L -6899.88232,-44390.37500" />
    <path d="M -6886.43457,-45296.64844 L -6891.68799,-44803.59375" />
    <path d="M -6899.56055,-44415.88281 L -6897.99121,-44512.67188" />
    <path d="M -6899.56055,-44415.88281 L -6900.25781,-44360.61719" />
    <path d="M -6886.43457,-45296.64844 L -6887.82764,-45361.07812" />
    <path d="M -6890.33350,-45432.27344 L -6887.82764,-45361.07812" />
    <path d="M -7044.92285,-47693.30078 L -7023.02734,-47692.64844 L -7001.19141,-47692.00000 L -6979.41748,-47691.35156 L -6957.70508,-47690.70312 L -6936.05713,-47690.06250 L -6914.47363,-47689.41406 L -6892.95703,-47688.77344 L -6871.50977,-47688.12500 L -6850.13281,-47687.47656 L -6828.82959,-47686.82812 L -6807.60205,-47686.17188 L -6786.45264,-47685.51562 L -6765.38477,-47684.85156 L -6744.40088,-47684.17969 L -6723.50488,-47683.50781 L -6702.69922,-47682.82812 L -6681.98828,-47682.14062 L -6661.37500,-47681.44531 L -6640.86328,-47680.74219 L -6620.45703,-47680.03125 L -6600.16016,-47679.31641 L -6579.97656,-47678.58984 L -6559.91113,-47677.85156 L -6539.96777,-47677.10938 L -6520.15137,-47676.35547 L -6500.46533,-47675.59375 L -6480.91553,-47674.82031 L -6461.50586,-47674.03516 L -6442.24170,-47673.24219 L -6423.12744,-47672.43750 L -6404.16846,-47671.62500 L -6385.36914,-47670.79688 L -6366.73486,-47669.96094 L -6348.27100,-47669.11719 L -6329.98242,-47668.25781 L -6311.87451,-47667.39062 L -6293.95215,-47666.51562 L -6276.22119,-47665.62500 L -6258.68652,-47664.72656 L -6241.35352,-47663.81250 L -6224.22754,-47662.89453 L -6207.31445,-47661.96484 L -6190.61865,-47661.02344 L -6174.14648,-47660.07031 L -6157.90332,-47659.10938 L -6141.89404,-47658.14062 L -6126.12451,-47657.15625 L -6110.59961,-47656.16797 L -6095.32520,-47655.16797 L -6080.30615,-47654.16016 L -6065.54883,-47653.14062 L -6051.05713,-47652.11719 L -6036.83740,-47651.07812 L -6022.89502,-47650.03906 L -6009.23438,-47648.98438 L -5995.86084,-47647.92969 L -5982.78027,-47646.85938 L -5969.99707,-47645.78906 L -5957.51611,-47644.70703 L -5945.34326,-47643.61719 L -5933.48291,-47642.52734 L -5921.93994,-47641.42969 L -5910.71875,-47640.32031 L -5899.82520,-47639.21094 L -5889.26270,-47638.09766 L -5879.03662,-47636.97656 L -5869.15137,-47635.85156 L -5859.61133,-47634.72656 L -5850.42041,-47633.59375 L -5841.58350,-47632.46094 L -5833.10449,-47631.32422 L -5824.98779,-47630.18359 L -5817.23682,-47629.03906 L -5809.85547,-47627.89844 L -5802.84814,-47626.75391 L -5796.21826,-47625.60938 L -5790.83838,-47624.62500 L -5785.74023,-47623.64062 L -5780.92676,-47622.66016 L -5776.39941,-47621.67969 L -5772.16016,-47620.69531 L -5768.21094,-47619.71484 L -5764.55371,-47618.73438 L -5761.19043,-47617.75781 L -5758.12305,-47616.78125 L -5755.35254,-47615.80469 L -5752.88086,-47614.83203 L -5750.70996,-47613.85938 L -5748.84082,-47612.89062 L -5747.27441,-47611.92969 L -5745.85889,-47610.82812 L -5744.84229,-47609.73438 L -5744.22705,-47608.64844" />
    <path d="M -5744.22705,-47608.64844 L -5733.87158,-47570.18750 L -5724.12793,-47531.66406 L -5714.86768,-47492.73438 L -5706.09229,-47453.53125 L -5697.75879,-47413.80469 L -5691.15625,-47380.35156 L -5684.86328,-47346.69531 L -5678.86865,-47312.78906 L -5674.62646,-47288.00781 L -5670.46143,-47262.27344 L -5663.53906,-47216.21484 L -5657.14062,-47170.45312 L -5651.38281,-47125.80469 L -5651.20312,-47124.30469 L -5645.81885,-47079.25000 L -5642.36963,-47048.17188 L -5639.10840,-47016.93750 L -5636.00000,-46985.22266 L -5633.07617,-46953.35156 L -5628.20654,-46894.84375 L -5623.91553,-46835.85938 L -5620.18311,-46776.41797 L -5616.98828,-46716.54688 L -5615.18018,-46677.17188 L -5613.58838,-46637.63281 L -5612.15674,-46596.37500 L -5610.94678,-46554.96875 L -5609.19238,-46473.21094 L -5608.52246,-46423.96875 L -5608.12646,-46374.53906 L -5607.99609,-46324.73438 L -5608.12549,-46274.75781 L -5609.12793,-46174.52734 L -5611.08008,-46073.72656 L -5613.90918,-45972.49219 L -5616.05029,-45910.30078 L -5618.49609,-45847.09375 L -5621.27881,-45782.95312 L -5624.35742,-45718.73438 L -5631.31104,-45590.98438 L -5639.31494,-45463.18359 L -5648.30078,-45335.50781 L -5658.21143,-45208.13281 L -5668.99854,-45081.23438 L -5680.62256,-44954.98438 L -5693.05371,-44829.55859 L -5706.27246,-44705.13281 L -5720.26758,-44581.87500 L -5735.03760,-44459.96875 L -5750.59033,-44339.57422 L -5766.94385,-44220.87500 L -5775.42871,-44162.21094 L -5784.12451,-44104.03125 L -5796.05518,-44027.26172 L -5808.38281,-43951.44531 L -5821.12158,-43876.63281 L -5835.96631,-43793.73828 L -5851.37939,-43712.25391 L -5867.39111,-43632.25000 L -5875.63184,-43592.82812 L -5884.03418,-43553.80469" />
    <path d="M -7286.95752,-45303.64062 L -7282.17215,-45422.59657" />
    <path d="M 8233.92285,-47693.30078 L 8255.82812,-47693.41406 L 8277.67383,-47693.52344 L 8299.45703,-47693.63672 L 8321.17773,-47693.75000 L 8342.83594,-47693.85938 L 8364.42871,-47693.96875 L 8385.95410,-47694.07812 L 8407.41113,-47694.17969 L 8428.79785,-47694.28125 L 8450.11133,-47694.37109 L 8471.34766,-47694.46094 L 8492.50781,-47694.53906 L 8513.58594,-47694.60938 L 8534.58008,-47694.67578 L 8555.48730,-47694.73047 L 8576.30371,-47694.77734 L 8597.02637,-47694.81250 L 8617.65137,-47694.83594 L 8638.17480,-47694.85156 L 8658.59375,-47694.85547 L 8678.90332,-47694.84375 L 8699.09961,-47694.82422 L 8719.17773,-47694.78906 L 8739.13574,-47694.74219 L 8758.96680,-47694.67969 L 8778.66699,-47694.60156 L 8798.23242,-47694.51562 L 8817.65723,-47694.40625 L 8836.93750,-47694.28906 L 8856.06836,-47694.14844 L 8875.04395,-47694.00000 L 8893.86035,-47693.82812 L 8912.51270,-47693.64453 L 8930.99512,-47693.44531 L 8949.30176,-47693.22656 L 8967.42969,-47692.99219 L 8985.37109,-47692.73828 L 9003.12305,-47692.46875 L 9020.67773,-47692.17969 L 9038.03223,-47691.87500 L 9055.17969,-47691.55469 L 9072.11523,-47691.21484 L 9088.83301,-47690.85938 L 9105.32812,-47690.48438 L 9121.59570,-47690.08594 L 9137.62891,-47689.67578 L 9153.42285,-47689.24609 L 9168.97363,-47688.79688 L 9184.27344,-47688.33203 L 9199.31836,-47687.84766 L 9214.10254,-47687.34375 L 9228.62109,-47686.82812 L 9242.86816,-47686.28906 L 9256.83887,-47685.73438 L 9270.52734,-47685.15625 L 9283.92969,-47684.56641 L 9297.04004,-47683.95703 L 9309.85254,-47683.32812 L 9322.36328,-47682.68750 L 9334.56641,-47682.02344 L 9346.45801,-47681.34375 L 9358.03223,-47680.64844 L 9369.28516,-47679.93750 L 9380.21094,-47679.21094 L 9390.80566,-47678.46094 L 9401.06445,-47677.70312 L 9410.98340,-47676.92188 L 9420.55664,-47676.12891 L 9429.78125,-47675.32031 L 9438.65234,-47674.49219 L 9447.16602,-47673.65234 L 9455.31836,-47672.79688 L 9463.10449,-47671.92578 L 9470.52051,-47671.03906 L 9477.56348,-47670.14062 L 9484.22949,-47669.22656 L 9489.64062,-47668.43359 L 9494.76953,-47667.62891 L 9499.61426,-47666.81641 L 9504.17383,-47665.99219 L 9508.44434,-47665.15625 L 9512.42578,-47664.31641 L 9516.11426,-47663.46484 L 9519.50977,-47662.60156 L 9522.60938,-47661.73438 L 9525.41211,-47660.85938 L 9527.91602,-47659.96875 L 9530.12012,-47659.07812 L 9532.02246,-47658.17188 L 9533.62109,-47657.26562 L 9535.07422,-47656.21875 L 9536.12793,-47655.15625 L 9536.78125,-47654.09375" />
    <path d="M 9536.78125,-47654.09375 L 9548.47266,-47616.01562 L 9559.55469,-47577.85938 L 9570.16797,-47539.27344 L 9580.30566,-47500.39844 L 9590.02051,-47460.99219 L 9597.78711,-47427.78906 L 9605.25098,-47394.37500 L 9612.42480,-47360.69531 L 9617.52930,-47336.07812 L 9622.58984,-47310.50000 L 9631.11523,-47264.71484 L 9639.10742,-47219.20312 L 9646.41992,-47174.78125 L 9646.65137,-47173.28906 L 9653.60449,-47128.45312 L 9658.13672,-47097.51562 L 9662.48633,-47066.41406 L 9666.69922,-47034.82422 L 9670.73340,-47003.07812 L 9677.64258,-46944.77344 L 9683.98926,-46885.97266 L 9689.79395,-46826.69922 L 9695.07617,-46766.97656 L 9698.25684,-46727.68750 L 9701.22852,-46688.22656 L 9704.09863,-46647.04688 L 9706.75293,-46605.70703 L 9711.35938,-46524.05859 L 9713.74805,-46474.87500 L 9715.86816,-46425.48438 L 9717.73730,-46375.71875 L 9719.35156,-46325.76562 L 9721.84766,-46225.56250 L 9723.41406,-46124.75781 L 9724.12012,-46023.48438 L 9724.15137,-45961.25391 L 9723.91309,-45898.00000 L 9723.37012,-45833.80469 L 9722.53418,-45769.51562 L 9720.04395,-45641.60156 L 9716.50488,-45513.59375 L 9711.98047,-45385.68750 L 9706.52051,-45258.04297 L 9700.16895,-45130.84375 L 9692.95801,-45004.26562 L 9684.91211,-44878.48438 L 9676.04395,-44753.67188 L 9666.35840,-44630.00000 L 9655.85254,-44507.64844 L 9644.51074,-44386.78906 L 9632.30957,-44267.58594 L 9625.87695,-44208.66406 L 9619.21680,-44150.22266 L 9609.97266,-44073.07812 L 9600.29883,-43996.87891 L 9590.17871,-43921.67188 L 9578.23633,-43838.30469 L 9565.67578,-43756.33594 L 9552.46582,-43675.82031 L 9545.60645,-43636.13281 L 9538.57129,-43596.83984" />
    <path d="M -7298.91455,-44810.70312 L -7300.77881,-44651.63281" />
    <path d="M -7304.89355,-44408.76562 L -7307.14307,-44313.82031" />
    <path d="M -7295.63818,-45040.12109 L -7298.91455,-44810.70312" />
    <path d="M -7293.78613,-45120.89062 L -7295.63818,-45040.12109" />
    <path d="M -7292.33203,-45170.89844 L -7293.78613,-45120.89062" />
    <path d="M -7290.59766,-45220.68750 L -7292.33203,-45170.89844" />
    <path d="M -7302.45752,-44536.28906 L -7304.89355,-44408.76562" />
    <path d="M -7302.45752,-44536.28906 L -7300.77881,-44651.63281" />
    <path d="M -7286.95752,-45303.64062 L -7290.59766,-45220.68750" />
    <path d="M 9536.78125,-47654.09375 L 9518.64258,-47686.80469 L 9512.12012,-47695.42188 L 9505.37207,-47703.02344 L 9498.43945,-47709.60156" />
    <path d="M 8232.62598,-47767.60156 L 8270.49609,-47768.17188 L 8308.28906,-47768.75000 L 8345.98438,-47769.26172 L 8383.55859,-47769.70312 L 8420.98730,-47770.08203 L 8458.24414,-47770.39062 L 8495.30273,-47770.63281 L 8532.13281,-47770.81250 L 8568.70898,-47770.92188 L 8605.00000,-47770.96875 L 8640.97461,-47770.94531 L 8676.60254,-47770.85938 L 8711.85156,-47770.70703 L 8746.68848,-47770.49219 L 8781.08203,-47770.20703 L 8798.10449,-47770.03906 L 8815.00391,-47769.85938 L 8831.76855,-47769.65625 L 8848.40234,-47769.44531 L 8876.60254,-47769.03906 L 8904.38184,-47768.58594 L 8931.71777,-47768.08594 L 8958.58984,-47767.53516 L 8984.97559,-47766.93750 L 9010.85449,-47766.29688 L 9036.20410,-47765.60938 L 9063.94238,-47764.78125 L 9090.96191,-47763.89844 L 9117.23340,-47762.95703 L 9142.72656,-47761.96094 L 9167.41309,-47760.90625 L 9191.26660,-47759.79688 L 9214.25684,-47758.62891 L 9236.35742,-47757.41016 L 9257.54199,-47756.13672 L 9277.78418,-47754.81250 L 9297.05762,-47753.42969 L 9315.33887,-47752.00000 L 9324.09961,-47751.26953 L 9335.37012,-47750.31641 L 9350.98926,-47748.89844 L 9365.66504,-47747.43750 L 9379.37988,-47745.92969 L 9392.11523,-47744.39062 L 9403.85547,-47742.80469 L 9414.58398,-47741.18359 L 9424.28418,-47739.52344 L 9432.94238,-47737.82812 L 9440.21777,-47736.32812 L 9447.84375,-47734.60938 L 9454.39355,-47732.85938 L 9459.85449,-47731.07812 L 9464.59863,-47729.47656 L 9468.76465,-47727.99609 L 9472.16309,-47726.49219 L 9479.15918,-47723.14062 L 9482.06250,-47721.48438 L 9489.26562,-47716.96875" />
    <path d="M 8089.80518,-44306.72656 L 8124.67871,-42323.21094" />
    <path d="M 8534.70312,-42083.59375 L 8532.07031,-42237.72656" />
    <path d="M 3411.12476,-51036.65234 L 3412.79785,-35007.47266" />
    <path d="M -2223.79346,-50927.67188 L -2223.79346,-35007.47266" />
    <path d="M 3412.79785,-35007.42188 L 3412.46631,-34801.97656 L 3411.36572,-34595.53516 L 3409.51733,-34388.39062 L 3406.93896,-34180.76562 L 3403.64526,-33972.85156 L 3399.64868,-33764.78516 L 3394.95972,-33556.66797 L 3389.58765,-33348.56641 L 3384.44458,-33170.24219 L 3378.80981,-32991.98047 L 3372.68701,-32813.79297 L 3366.08032,-32635.67578 L 3361.44019,-32517.74609 L 3356.59058,-32399.84375 L 3351.46436,-32280.41016 L 3346.12524,-32160.99609 L 3334.88989,-31923.77344 L 3323.71753,-31703.52734 L 3311.84155,-31483.28906 L 3299.27002,-31263.03125 L 3286.01270,-31042.73828 L 3272.07861,-30822.39844 L 3257.47852,-30601.99609 L 3242.22266,-30381.53516 L 3233.02466,-30252.90625 L 3223.60962,-30124.25391 L 3204.13647,-29866.90625 L 3183.82129,-29609.51172 L 3162.68213,-29352.09766 L 3140.73682,-29094.69141 L 3120.85986,-28869.18750 L 3100.38940,-28643.73828 L 3079.33667,-28418.36328 L 3057.71265,-28193.07812 L 3035.52783,-27967.89844 L 3021.44629,-27827.84766 L 3007.15405,-27687.84375 L 2992.52173,-27546.61719 L 2977.67969,-27405.43750 L 2947.51392,-27124.45312 L 2918.63550,-26862.32031 L 2889.07520,-26600.26172 L 2858.85132,-26338.23047 L 2827.98413,-26076.17188 L 2796.49731,-25814.02734 L 2760.82007,-25522.57812 L 2724.46094,-25230.89062 L 2687.48047,-24938.91797 L 2659.38184,-24719.76562 L 2631.01465,-24500.48828 L 2590.18115,-24187.64062 L 2549.05933,-23874.97266 L 2503.60352,-23530.82422 L 2458.39355,-23188.52344" />
    <path d="M -2223.79346,-35007.42188 L -2223.46191,-34801.97656 L -2222.36133,-34595.53516 L -2220.51270,-34388.39062 L -2217.93408,-34180.76562 L -2214.64014,-33972.85156 L -2210.64331,-33764.78516 L -2205.95386,-33556.66797 L -2200.58081,-33348.56641 L -2195.43677,-33170.24219 L -2189.80054,-32991.98047 L -2183.67603,-32813.79297 L -2177.06714,-32635.67578 L -2172.42334,-32517.70312 L -2167.56982,-32399.75391 L -2162.44287,-32280.36719 L -2157.10327,-32160.99609 L -2145.86157,-31923.77344 L -2134.68213,-31703.52734 L -2122.79688,-31483.28906 L -2110.21484,-31263.03125 L -2096.94458,-31042.73828 L -2082.99536,-30822.39844 L -2068.37720,-30601.99609 L -2053.10034,-30381.53516 L -2043.95874,-30253.87500 L -2034.60205,-30126.19141 L -2024.88550,-29996.55859 L -2014.95117,-29866.90625 L -1994.59595,-29609.51172 L -1973.40991,-29352.09766 L -1951.41040,-29094.69141 L -1931.79517,-28872.71094 L -1911.59766,-28650.78125 L -1890.82788,-28428.92578 L -1869.49609,-28207.15625 L -1847.61133,-27985.48828 L -1833.65649,-27846.99609 L -1819.49146,-27708.55078 L -1790.53857,-27431.78516 L -1760.76953,-27155.17969 L -1730.20093,-26878.69922 L -1713.57642,-26731.28516 L -1696.73218,-26583.88672 L -1662.39648,-26289.10156 L -1627.21997,-25994.26562 L -1591.23535,-25699.29297 L -1554.48242,-25404.11328 L -1531.14355,-25219.48828 L -1507.53906,-25034.75391 L -1483.68628,-24849.90625 L -1459.60571,-24664.95312 L -1416.45093,-24337.06250 L -1372.81738,-24009.18750 L -1336.02124,-23734.69141 L -1262.48596,-23188.52344" />
    <path d="M -1298.91101,-56948.57031 L -1627.62207,-55739.46484" />
    <path d="M -2059.17554,-53408.63281 L -2079.19751,-53252.33984 L -2090.09229,-53163.17188 L -2100.61621,-53074.00000 L -2110.76782,-52984.81250 L -2120.54565,-52895.60938 L -2129.94849,-52806.38672 L -2138.97412,-52717.13672 L -2147.62134,-52627.85938 L -2155.88818,-52538.53906 L -2163.79590,-52448.91406 L -2171.31738,-52359.23438 L -2178.40820,-52270.04688 L -2185.11230,-52180.80078 L -2193.46948,-52061.36328 L -2201.12231,-51941.82422 L -2208.06226,-51822.19922 L -2212.03296,-51747.40234 L -2215.71802,-51672.58594 L -2219.11377,-51597.76562 L -2222.21655,-51522.95312 L -2225.02246,-51448.17188 L -2227.52612,-51373.43359 L -2229.72290,-51298.77344 L -2223.79346,-50927.67188" />
    <path d="M -1690.39111,-55470.99219 L -1707.19116,-55396.34766 L -1710.15210,-55383.16406 L -1723.83374,-55321.62109 L -1740.21875,-55246.81250 L -1756.34619,-55171.92578 L -1772.21606,-55096.96094 L -1787.82837,-55021.92578 L -1756.31250,-55171.92578 L -1787.88354,-55021.92578 L -1818.40259,-54871.63281 L -1847.86719,-54721.07031 L -1876.27637,-54570.27734 L -1903.63037,-54419.27734 L -1929.92944,-54268.10938 L -1955.17480,-54116.81250 L -1979.36792,-53965.41406 L -2002.51001,-53813.94531 L -2024.61426,-53662.42969 L -2045.71753,-53510.89062 L -2065.76904,-53359.33203 L -2079.19751,-53252.33984 L -2084.76465,-53207.75781 L -2090.09229,-53163.17188" />
    <path d="M -2110.76782,-52984.81250 L -2100.61621,-53074.00000" />
    <path d="M 1545.00732,-59361.83203 L 1371.91919,-59680.73047" />
    <path d="M 1664.74829,-59115.72266 L 1545.00732,-59361.83203" />
    <path d="M 1139.14282,-60025.95312 L 1130.02454,-60036.21875" />
    <path d="M 188.05576,-15081.47266 L 460.68689,-15081.47656" />
    <path d="M 328.18835,-14575.16972 L 326.39359,-14576.38281 L 324.83600,-14577.48047 L 321.49533,-14580.10156 L 318.89420,-14582.19141 L 314.32764,-14586.11328 L 309.72397,-14590.55078 L 301.77048,-14599.32812 L 294.76456,-14608.50781 L 288.40445,-14618.25000 L 282.57095,-14628.51953 L 278.72635,-14636.11719 L 275.15179,-14643.85547 L 271.55472,-14652.39062 L 268.22784,-14661.04688 L 262.51129,-14677.93359 L 257.58725,-14694.99609 L 253.26587,-14712.29297 L 249.46649,-14729.69531 L 246.08853,-14747.17578 L 243.00134,-14763.70312 L 240.85837,-14775.96875 L 238.63538,-14789.21484 L 234.52710,-14814.18750 L 232.09271,-14829.02344 L 229.78476,-14843.07422 L 224.99261,-14871.91406 L 220.00137,-14901.19141 L 214.78360,-14931.00781 L 209.47464,-14961.06641 L 204.07843,-14990.75000 L 198.74158,-15020.64453 L 193.26843,-15051.09375 L 188.05576,-15081.47266" />
    <path d="M 29.19983,-16061.59766 L -929.09570,-21384.82422" />
    <path d="M -1061.26477,-22038.05078 L -1262.48596,-23188.52344" />
    <path d="M -1061.26477,-22038.05078 L -929.09570,-21384.82422" />
    <path d="M 2487.88086,-56948.72266 L 2463.96289,-57026.53906 L 2439.63232,-57104.47656 L 2414.88257,-57182.52734 L 2389.70972,-57260.67969 L 2364.11060,-57338.92578 L 2338.08350,-57417.24219 L 2295.54834,-57542.66406 L 2251.91846,-57668.15234 L 2207.20215,-57793.62891 L 2161.41406,-57918.99609 L 2114.57227,-58044.15625 L 2088.51807,-58112.48438 L 2062.15967,-58180.69922 L 2035.50134,-58248.79297 L 2008.54761,-58316.74219 L 1981.30310,-58384.53906 L 1953.77271,-58452.16016 L 1925.96118,-58519.59375 L 1897.87366,-58586.82031 L 1869.51489,-58653.82812 L 1840.89001,-58720.60547 L 1812.00366,-58787.13281 L 1782.86084,-58853.40234 L 1753.46582,-58919.40234 L 1723.82324,-58985.11719" />
    <path d="M 1723.82324,-58985.11719 L 1664.23816,-59115.67188" />
    <path d="M 732.34448,-15081.47656 L 1000.94421,-15081.47266" />
    <path d="M 1000.94421,-15081.47266 L 917.43701,-14652.39062" />
    <path d="M 917.31994,-14652.39062 L 910.26501,-14636.11328" />
    <path d="M 910.26501,-14636.11328 L 906.41992,-14628.51562 L 900.58630,-14618.24609 L 894.22632,-14608.50391 L 887.22058,-14599.32422 L 879.26733,-14590.55078 L 874.66333,-14586.11328 L 870.09668,-14582.18750 L 867.49329,-14580.09375 L 859.08630,-14573.77734" />
    <path d="M 594.50000,-59115.67188 L 1495.57568,-58579.00781" />
    <path d="M 503.86310,-14606.07031 L 512.15778,-14606.24609 L 504.02789,-14606.07422 L 495.77734,-14605.85938 L 487.41119,-14605.60156 L 478.94257,-14605.30078 L 470.39151,-14604.94922 L 461.78354,-14604.54688 L 453.14880,-14604.09375 L 444.52103,-14603.58594 L 436.79193,-14603.08594 L 429.12561,-14602.53906 L 421.55054,-14601.94531 L 414.09546,-14601.30859 L 406.78918,-14600.62891 L 399.65997,-14599.90625 L 392.73550,-14599.14062 L 386.04245,-14598.33203 L 379.60626,-14597.48438 L 373.45099,-14596.59375 L 368.02173,-14595.73828 L 362.86914,-14594.85156 L 358.00842,-14593.93750 L 353.45331,-14592.99219 L 349.21609,-14592.02344 L 345.30759,-14591.02734 L 341.73706,-14590.00781 L 338.51227,-14588.96875 L 335.63943,-14587.91016 L 333.12329,-14586.83594 L 330.96707,-14585.74609 L 329.17261,-14584.64062 L 327.74026,-14583.52734 L 326.66916,-14582.40234 L 325.95709,-14581.26953 L 325.60065,-14580.13281 L 325.59531,-14578.99609 L 325.93552,-14577.85547 L 327.39734,-14575.80859 L 329.91229,-14573.77734" />
    <path d="M 329.91229,-14573.77734 L 334.86465,-14570.64062 L 339.65756,-14568.03516 L 350.41632,-14563.28125 L 355.75366,-14561.40625 L 361.63867,-14559.44922 L 364.86804,-14558.45312 L 371.96503,-14556.59766 L 376.16510,-14555.52344 L 383.91302,-14553.84375 L 390.56604,-14552.54688 L 399.54681,-14551.02344 L 409.32736,-14549.66406 L 419.69415,-14548.30078 L 424.90958,-14547.67188 L 430.31006,-14547.07812 L 435.89688,-14546.51562 L 441.65509,-14545.98438 L 519.24219,-14539.16624" />
    <path d="M 1407.82983,-58191.69922 L 1495.37866,-58579.07031" />
    <path d="M 594.50000,-58632.23033 L 1407.82983,-58191.69922" />
    <path d="M 594.50000,-59115.67188 L 594.50000,-58632.23047" />
    <path d="M 678.07858,-14540.41167 L 725.48444,-14544.07422 L 736.65796,-14545.05469 L 747.34503,-14545.98438 L 753.10327,-14546.51562 L 758.69006,-14547.07812 L 764.09052,-14547.67188 L 769.30591,-14548.30078 L 779.67267,-14549.66406 L 789.45319,-14551.02344 L 798.43396,-14552.54688 L 805.08691,-14553.84375 L 812.83484,-14555.52344 L 817.03479,-14556.59766 L 824.13171,-14558.45312 L 827.36108,-14559.44922 L 833.24591,-14561.40625 L 838.58325,-14563.28125 L 843.00488,-14565.24609 L 849.34161,-14568.03516 L 854.13428,-14570.64062 L 859.08630,-14573.77734" />
    <path d="M 2939.12036,-55199.24219 L 2930.34814,-55239.97656" />
    <path d="M 2823.38794,-55710.84375 L 2487.91992,-56948.57031" />
    <path d="M 3349.08667,-52449.17969 L 3357.81592,-52338.91406" />
    <path d="M 3342.62280,-52525.14062 L 3349.08667,-52449.17969" />
    <path d="M 3342.62280,-52525.14062 L 3324.98975,-52717.08594" />
    <path d="M 3271.84717,-53207.75781 L 3321.53296,-52752.83984" />
    <path d="M 2823.38794,-55710.84375 L 2901.63208,-55371.44531 L 2923.62427,-55271.75781 L 2945.15527,-55171.92578 L 2961.01978,-55096.96094 L 2976.64819,-55021.92578 L 3007.10864,-54871.63281 L 3036.50488,-54721.07031 L 3064.83496,-54570.27734 L 3092.09766,-54419.27734 L 3118.29199,-54268.10938 L 3143.41821,-54116.81250 L 3167.47559,-53965.41406 L 3190.46484,-53813.94531 L 3212.38501,-53662.42969 L 3233.23535,-53510.89062 L 3212.36230,-53662.42969 L 3233.26733,-53510.89062 L 3253.09766,-53359.33203 L 3271.84717,-53207.75781" />
    <path d="M 3321.53296,-52752.83984 L 3324.98975,-52717.08594" />
    <path d="M 888.52911,-60307.67188 L 873.65076,-60321.55469 L 858.11670,-60334.70312 L 841.96399,-60347.08203 L 825.23065,-60358.66406 L 807.95593,-60369.42188 L 790.18030,-60379.33203 L 771.94543,-60388.37109 L 753.29401,-60396.51562 L 734.26990,-60403.75000 L 714.91766,-60410.05078 L 695.28290,-60415.40625 L 675.41162,-60419.80859 L 655.35046,-60423.24219 L 635.14648,-60425.70312 L 614.84717,-60427.17969 L 594.50000,-60427.67188 L 574.15283,-60427.17969 L 553.85339,-60425.70312 L 533.64941,-60423.24219 L 513.58826,-60419.80859 L 493.71692,-60415.40625 L 474.08209,-60410.05078 L 454.72986,-60403.75000 L 435.70569,-60396.51562 L 417.05426,-60388.37109 L 398.81934,-60379.33203 L 381.04370,-60369.42188 L 363.76892,-60358.66406 L 347.03552,-60347.08203 L 330.88278,-60334.70312 L 315.34879,-60321.55469 L 300.47040,-60307.67188" />
    <path d="M -306.37854,-58579.07031 L 594.50000,-59115.72266" />
    <path d="M 594.50000,-59115.72266 L -272.68390,-59115.72266" />
    <path d="M 594.50000,-58632.23047 L 594.50000,-59115.67188" />
    <path d="M -306.37860,-58579.07031 L -218.82983,-58191.69922" />
    <path d="M 594.50000,-59115.67188 L -306.37860,-58579.07031" />
    <path d="M -1695.34790,-55451.74609 L -1627.62207,-55739.46484" />
    <path d="M 888.48901,-60307.62109 L 922.33997,-60274.41406 L 955.34509,-60240.58984 L 987.54297,-60206.17969 L 1018.97070,-60171.21094 L 1039.51221,-60147.60547 L 1059.73755,-60123.77344 L 1079.65637,-60099.71875 L 1099.27832,-60075.45703 L 1118.61292,-60050.98828 L 1130.02454,-60036.21875" />
    <path d="M 3357.81592,-52338.91406 L 3394.33057,-51711.03906" />
    <path d="M 3394.33057,-51711.03906 L 3411.12476,-51036.65234" />
    <path d="M 190.48383,-15081.51953 L 280.56189,-15081.51953" />
    <path d="M 861.92908,-15081.51953 L 998.40875,-15081.51953" />
    <path d="M 29.19983,-16061.59766 L 190.48383,-15081.51953" />
    <path d="M 1370.26819,-17387.11328 L 1148.46167,-15991.83203" />
    <path d="M 1664.74829,-59115.72266 L -474.91565,-59115.72266" />
    <path d="M -197.85260,-59655.04297 L -336.72601,-59399.08984" />
    <path d="M 276.57126,-60283.57812 L 300.51010,-60307.62109" />
    <path d="M 253.13571,-60259.69531 L 276.57126,-60283.57812" />
    <path d="M 230.17450,-60235.81250 L 250.22110,-60256.67969" />
    <path d="M 49.89526,-60025.95312 L 230.17450,-60235.81250" />
    <path d="M -16.95459,-59936.22656 L 49.89526,-60025.95312" />
    <path d="M -198.77129,-59655.04297 L -16.95459,-59936.22656" />
    <path d="M -474.91565,-59115.72266 L -336.72601,-59399.08984" />
    <path d="M 594.50000,-58632.23047 L -218.82983,-58191.69922" />
    <path d="M -534.82300,-58985.11719 L -534.82324,-58985.11719 L -564.46582,-58919.40234 L -593.86072,-58853.40234 L -623.00366,-58787.13281 L -651.89001,-58720.60547 L -680.51489,-58653.82812 L -708.87354,-58586.82031 L -736.96106,-58519.59375 L -764.77258,-58452.16016 L -792.30298,-58384.53906 L -819.54749,-58316.74219 L -846.50122,-58248.79297 L -873.15942,-58180.69922 L -899.51782,-58112.48438 L -925.57190,-58044.15625 L -972.41345,-57918.99609 L -1018.20154,-57793.62891 L -1062.91748,-57668.15234 L -1106.54724,-57542.66406 L -1149.08215,-57417.24219 L -1175.10913,-57338.92578 L -1200.70789,-57260.67969 L -1225.88049,-57182.52734 L -1250.62988,-57104.47656 L -1274.96045,-57026.53906 L -1298.87781,-56948.72266" />
    <path d="M -270.64484,-59115.67188 L -475.23816,-59115.67188" />
    <path d="M -475.23816,-59115.67188 L -534.82324,-58985.11719" />
    <path d="M 2123.10571,-21410.17578 L 2223.31494,-21909.43359" />
    <path d="M 2458.39355,-23188.52344 L 2223.31494,-21909.43359" />
    <path d="M 2123.10571,-21410.17578 L 1370.26819,-17387.11328" />
    <path d="M 1148.46167,-15991.83203 L 998.40015,-15081.44141" />
    <path d="M -7533.05371,-15807.07812 L -7536.63574,-13994.94141" />
    <path d="M -7536.63574,-13994.94141 L -7533.05371,-15807.07812" />
    <path d="M -7237.50000,-14102.52344 L -7536.63574,-13994.94141" />
    <path d="M -7444.63672,-16348.44531 L -7435.86035,-16371.09766" />
    <path d="M -7523.93457,-16028.60156 L -7527.55908,-15957.15234" />
    <path d="M -7529.47461,-15911.89453 L -7533.05371,-15807.07812" />
    <path d="M -7529.48877,-15911.55469 L -7529.00049,-15922.07031" />
    <path d="M -7527.55908,-15957.15234 L -7529.00049,-15922.07031" />
    <path d="M 8426.50000,-16615.54297 L 2106.00830,-21317.33203" />
    <path d="M 8426.50000,-14103.15234 L 1265.23669,-16724.64062" />
    <path d="M 8722.05371,-15807.07812 L 8725.63574,-13994.94141" />
    <path d="M 1022.01270,-22177.58203 L 955.16504,-23529.16016" />
    <path d="M 1022.08081,-22131.07031 L 1021.45190,-22203.36328" />
    <path d="M 1021.81824,-22162.30469 L 1022.10034,-22121.19141" />
    <path d="M 1022.10034,-22121.19141 L 1022.45569,-22056.70703" />
    <path d="M 1022.45569,-22056.70703 L 1022.59485,-21930.62109" />
    <path d="M 1022.19580,-21875.26953 L 1022.43597,-21910.86719" />
    <path d="M 1021.72266,-21841.19922 L 1022.11621,-21891.45312" />
    <path d="M 1021.96887,-21870.43750 L 1021.79810,-21849.41016" />
    <path d="M 1021.79810,-21849.41016 L 1021.60883,-21828.88672" />
    <path d="M 1021.60883,-21828.88672 L 1021.39734,-21808.35156" />
    <path d="M 1020.99011,-21773.67578 L 1021.39734,-21808.35156" />
    <path d="M 1020.99011,-21773.67578 L 1020.52045,-21738.98828" />
    <path d="M 1020.52045,-21738.98828 L 1018.04822,-21581.37109" />
    <path d="M 1015.80298,-21490.88281 L 1017.91809,-21578.64453" />
    <path d="M 1017.13708,-21544.37109 L 1016.30200,-21510.14453" />
    <path d="M 1016.30200,-21510.14453 L 1012.50610,-21369.02344" />
    <path d="M 1010.09399,-21301.83203 L 1013.86066,-21441.35547" />
    <path d="M 1007.95386,-21236.24219 L 1010.09399,-21301.83203" />
    <path d="M 995.79114,-20945.08203 L 1003.97058,-21131.39844" />
    <path d="M 1007.95386,-21236.24219 L 1003.97058,-21131.39844" />
    <path d="M 991.16858,-20867.17188 L 995.79114,-20945.08203" />
    <path d="M 979.60352,-20630.17188 L 991.16858,-20867.17188" />
    <path d="M 979.60352,-20630.17188 L 975.54224,-20570.11719" />
    <path d="M 972.15924,-20503.24219 L 975.54224,-20570.11719" />
    <path d="M 959.60571,-20224.18750 L 949.95819,-19984.20312" />
    <path d="M 966.72211,-20396.47656 L 959.60571,-20224.18750" />
    <path d="M 966.72211,-20396.47656 L 972.15924,-20503.24219" />
    <path d="M 235.33713,-23549.60938 L 165.81808,-21898.52344" />
    <path d="M 233.94373,-20110.59766 L 215.90637,-20512.62109" />
    <path d="M 215.90637,-20512.62109 L 212.27521,-20577.82422" />
    <path d="M 196.13727,-20886.42188 L 205.46103,-20705.47266" />
    <path d="M 212.27521,-20577.82422 L 209.13080,-20634.94141" />
    <path d="M 209.38849,-20630.17188 L 205.46103,-20705.47266" />
    <path d="M 187.67435,-21069.98047 L 185.02133,-21131.41016" />
    <path d="M 189.90204,-21018.66406 L 187.67435,-21069.98047" />
    <path d="M 192.56104,-20961.87500 L 189.90204,-21018.66406" />
    <path d="M 196.13727,-20886.42188 L 192.56104,-20961.87500" />
    <path d="M 185.02133,-21131.41016 L 181.03693,-21236.25781" />
    <path d="M 181.03693,-21236.25781 L 178.89642,-21301.84375" />
    <path d="M 178.89642,-21301.84375 L 175.12933,-21441.34375" />
    <path d="M 175.12933,-21441.34375 L 172.68445,-21510.15625" />
    <path d="M 172.68445,-21510.15625 L 171.84860,-21544.38281" />
    <path d="M 171.84860,-21544.38281 L 170.93613,-21581.37891" />
    <path d="M 170.93613,-21581.37891 L 170.21915,-21615.57031" />
    <path d="M 170.21915,-21615.57031 L 169.55765,-21649.76562" />
    <path d="M 168.95230,-21683.94922 L 169.55765,-21649.76562" />
    <path d="M 167.38095,-21771.56250 L 168.95230,-21683.94922" />
    <path d="M 167.38095,-21771.56250 L 166.16312,-21907.83203" />
    <path d="M 8725.63574,-13994.94141 L 8722.05371,-15807.07812" />
    <path d="M 8426.50000,-14102.52344 L 8725.63574,-13994.94141" />
    <path d="M 8712.93457,-16028.60156 L 8716.55859,-15957.15234" />
    <path d="M 8718.47461,-15911.89453 L 8722.05371,-15807.07812" />
    <path d="M 8718.48828,-15911.55469 L 8716.55859,-15957.15234" />
    <path d="M 940.31824,-19744.02344 L 944.32599,-19851.50000 L 947.54236,-19959.02734 L 949.07593,-20023.50000 L 950.30359,-20087.90625 L 951.21912,-20152.22656 L 951.81763,-20216.43750 L 952.09491,-20280.52734 L 952.04803,-20344.48047 L 951.67505,-20408.30078 L 950.97491,-20471.98438 L 949.94763,-20535.53906 L 948.59424,-20598.97266 L 946.74231,-20668.23438 L 944.50549,-20737.40234 L 941.88794,-20806.50391 L 938.89441,-20875.57812 L 935.53027,-20944.66797 L 931.80090,-21013.81641 L 927.71167,-21083.07031 L 923.26740,-21152.47656 L 918.47205,-21222.07812 L 913.32825,-21291.91797 L 907.83691,-21362.03125 L 901.99646,-21432.44531 L 895.80261,-21503.16797 L 889.24744,-21574.21094 L 882.31897,-21645.55469 L 875.00024,-21717.16016 L 867.94818,-21782.80859 L 860.52905,-21848.55469 L 852.71582,-21914.31641 L 844.47559,-21979.96484 L 832.75580,-22067.07812 L 826.55072,-22110.32812 L 820.09424,-22153.29688 L 813.36835,-22195.90234 L 806.35327,-22238.06641 L 799.02740,-22279.69531 L 791.36713,-22320.69141 L 780.58844,-22374.17578 L 774.93823,-22400.33594 L 769.10211,-22426.04688 L 763.07056,-22451.27734 L 756.83356,-22475.97266 L 749.96771,-22501.58984 L 742.84436,-22526.49609 L 736.33826,-22547.81250 L 729.61090,-22568.48438 L 719.63782,-22596.68359 L 709.16345,-22623.32031 L 703.72766,-22636.01172 L 698.15369,-22648.25000 L 692.43677,-22660.01953 L 686.57233,-22671.29688 L 680.38025,-22682.36328 L 674.02136,-22692.85938 L 667.85968,-22702.22266 L 661.53955,-22711.03516 L 656.54761,-22717.44531 L 651.45581,-22723.50000 L 646.26184,-22729.19141 L 640.96313,-22734.50000 L 635.55731,-22739.42188 L 630.04181,-22743.94531 L 624.41394,-22748.05078 L 618.67114,-22751.73438 L 610.83057,-22755.95703 L 602.77429,-22759.36719 L 594.50885,-22758.67188" />
    <path d="M 940.31824,-19744.02344 L 791.98096,-16205.53906" />
    <path d="M 594.50885,-22758.67188 L 586.23151,-22756.15234 L 578.17657,-22752.78906 L 570.33734,-22748.61328 L 564.59552,-22744.96875 L 558.96863,-22740.89844 L 553.45404,-22736.41016 L 548.04913,-22731.52344 L 542.75134,-22726.24609 L 537.55823,-22720.58984 L 532.46735,-22714.57031 L 527.47620,-22708.19141 L 521.15002,-22699.41406 L 514.98267,-22690.08203 L 508.63196,-22679.63672 L 502.44763,-22668.62891 L 496.58417,-22657.39062 L 490.86823,-22645.66406 L 485.29514,-22633.46484 L 479.86026,-22620.81641 L 469.38757,-22594.25391 L 459.41608,-22566.13281 L 452.68488,-22545.50000 L 446.17523,-22524.21484 L 439.05786,-22499.38281 L 432.19754,-22473.83984 L 425.96143,-22449.19531 L 419.93073,-22424.01562 L 414.09546,-22398.35156 L 408.44595,-22372.24609 L 397.66858,-22318.85547 L 390.00919,-22277.92578 L 382.68408,-22236.36328 L 375.66974,-22194.26172 L 368.94446,-22151.71875 L 362.48846,-22108.81250 L 356.28381,-22065.61719 L 344.56470,-21978.61719 L 336.32474,-21913.04688 L 328.51160,-21847.36328 L 321.09250,-21781.68750 L 314.04031,-21716.10547 L 306.72125,-21644.57031 L 299.79236,-21573.29297 L 293.23669,-21502.31250 L 287.04221,-21431.64844 L 281.20105,-21361.29297 L 275.70886,-21291.23047 L 270.56421,-21221.44141 L 265.76794,-21151.88672 L 261.32266,-21082.52344 L 257.23239,-21013.31250 L 253.50195,-20944.19922 L 250.13666,-20875.14844 L 247.14197,-20806.10547 L 244.52322,-20737.03906 L 242.28525,-20667.90234 L 240.43219,-20598.66406 L 239.07764,-20535.25391 L 238.04932,-20471.72266 L 237.34811,-20408.06250 L 236.97403,-20344.26172 L 236.92612,-20280.32422 L 237.20236,-20216.25391 L 237.79980,-20152.05859 L 238.71436,-20087.75391 L 239.94101,-20023.35938 L 241.47366,-19958.89844 L 244.68845,-19851.39453 L 248.69470,-19743.93359" />
    <path d="M 248.69470,-19743.93359 L 372.20627,-16797.50391" />
    <path d="M 398.16281,-16177.87109 L 372.20627,-16797.50391" />
    <path d="M 777.74658,-16000.66406 L 777.07495,-16071.24219 L 776.09320,-16123.03516 L 774.73315,-16173.81641 L 773.02515,-16223.54688 L 771.00098,-16272.20312 L 768.69336,-16319.75000 L 766.13489,-16366.16406 L 762.58215,-16423.32812 L 758.74237,-16478.58203 L 753.91913,-16541.32812 L 748.86597,-16601.30859 L 744.05914,-16654.20312 L 739.16248,-16704.69922 L 734.20569,-16752.79688 L 729.20270,-16798.50781 L 724.15173,-16841.86328 L 719.03516,-16882.89844 L 713.73456,-16922.27734 L 708.28351,-16959.37891 L 702.80566,-16993.19922 L 697.06750,-17025.02344 L 690.90021,-17055.40625 L 684.32812,-17083.87109 L 679.69171,-17101.81641 L 674.83429,-17118.95312 L 667.99695,-17140.57031 L 660.74060,-17160.78906 L 653.07947,-17179.60938 L 648.10370,-17190.64844 L 643.00366,-17201.11719 L 637.80328,-17211.00000 L 632.53357,-17220.27344 L 627.23334,-17228.91016 L 621.95044,-17236.86719 L 616.74225,-17244.10938 L 611.67694,-17250.57812 L 606.54840,-17256.52734 L 601.78229,-17261.46094 L 597.96936,-17264.89062 L 596.00062,-17266.35660 L 593.01458,-17266.35670 L 591.03491,-17264.88281 L 587.22150,-17261.44922 L 582.45538,-17256.51953 L 577.32697,-17250.57031 L 572.26147,-17244.10156 L 567.05310,-17236.85938 L 561.77002,-17228.90234 L 556.46967,-17220.26953 L 551.19977,-17210.99609 L 545.99921,-17201.11328 L 540.89905,-17190.64453 L 535.92310,-17179.60547 L 528.26172,-17160.78516 L 521.00519,-17140.56641 L 514.16772,-17118.94922 L 509.31009,-17101.81250 L 504.67358,-17083.86719 L 498.10132,-17055.40234 L 491.93384,-17025.01953 L 486.19537,-16993.19531 L 480.71729,-16959.37109 L 475.26624,-16922.27344 L 469.96570,-16882.89453 L 464.84900,-16841.85938 L 459.79797,-16798.50781 L 454.79492,-16752.79297 L 449.83798,-16704.69922 L 444.94128,-16654.20312 L 440.13443,-16601.30469 L 435.08130,-16541.32812 L 430.25806,-16478.58203 L 426.41821,-16423.32422 L 422.86536,-16366.16016 L 420.30579,-16319.72656 L 417.99725,-16272.15625 L 415.97253,-16223.47656 L 414.26428,-16173.71875 L 412.90433,-16122.91406 L 411.92313,-16071.09375 L 411.25290,-16000.48047" />
    <path d="M 597.04352,-13765.71094 L 598.72504,-13792.07031" />
    <path d="M 598.72504,-13792.07031 L 599.88871,-13806.59237" />
    <path d="M 764.95996,-15549.99219 L 775.22119,-15788.62891" />
    <path d="M 764.95996,-15549.99219 L 694.14862,-14690.03906" />
    <path d="M 777.65796,-15941.87109 L 777.74658,-16000.66406" />
    <path d="M 776.90253,-15866.05469 L 775.22119,-15788.62891" />
    <path d="M 776.90253,-15866.05469 L 777.65796,-15941.87109" />
    <path d="M 775.22119,-15788.62891 L 776.90253,-15866.05469" />
    <path d="M 590.78494,-13836.74633 L 590.42764,-13840.82269" />
    <path d="M 413.77908,-15788.62891 L 424.04022,-15549.99219" />
    <path d="M 425.58664,-15526.60156 L 424.04022,-15549.99219" />
    <path d="M 425.58664,-15526.60156 L 578.26630,-13916.85938" />
    <path d="M 590.07597,-13843.82657 L 578.26630,-13916.85938" />
    <path d="M 413.77908,-15788.62891 L 412.09775,-15866.05078" />
    <path d="M 411.34225,-15941.87109 L 411.25290,-16000.48047" />
    <path d="M 412.09775,-15866.05078 L 413.77908,-15788.62891" />
    <path d="M 411.34225,-15941.87109 L 412.09775,-15866.05078" />
    <path d="M -7237.50000,-16615.54297 L -917.00830,-21317.33203" />
    <path d="M -7237.50000,-14103.15234 L -76.23669,-16724.64062" />
    <path d="M -2231.46094,-35520.24219 L -2303.50146,-36476.37109" />
    <path d="M -2234.35645,-35549.02734 L -2230.47266,-35507.51562" />
    <path d="M -2325.44238,-37306.37109 L -2290.52009,-37306.37109" />
    <path d="M -2365.09863,-36476.37109 L -2325.44238,-37306.37109" />
    <path d="M -2303.50146,-36476.37109 L -2365.09863,-36476.37109" />
    <path d="M 3419.71533,-41130.15234 L 3492.50293,-36476.37109" />
    <path d="M 3492.50293,-36476.37109 L 3420.46094,-35520.24219" />
    <path d="M -2230.71533,-41130.15234 L -2303.50146,-36476.37109" />
    <path d="M 3514.44238,-37306.37109 L 3479.52129,-37306.37109" />
    <path d="M 3554.09863,-36476.37109 L 3514.44238,-37306.37109" />
    <path d="M 3492.50293,-36476.37109 L 3554.09863,-36476.37109" />
    <path d="M 22580.09180,-33887.70703 L 9288.56445,-41641.70312" />
    <path d="M 22580.09180,-33887.70703 L 22580.17969,-33887.03516 L 22580.26367,-33885.61328 L 22580.34180,-33883.46484 L 22580.39844,-33881.39062 L 22580.45312,-33878.92188 L 22580.50586,-33876.07031 L 22580.55469,-33872.84375 L 22580.63867,-33866.20312 L 22580.71680,-33858.44531 L 22580.78711,-33849.61328 L 22580.83594,-33842.30469 L 22580.88281,-33834.43359 L 22580.92773,-33826.01562 L 22580.96680,-33817.06250 L 22581.00586,-33807.23438 L 22581.04297,-33796.87500 L 22581.07617,-33785.99609 L 22581.10742,-33774.61719 L 22581.16211,-33750.42578 L 22581.19727,-33731.10156 L 22581.22656,-33710.82422 L 22581.26367,-33678.73828 L 22581.29102,-33644.80859 L 22581.31055,-33610.94531 L 22581.32227,-33575.71094 L 22581.32812,-33535.51953 L 22581.32812,-33494.00391 L 22581.32227,-33453.30859 L 22581.31250,-33411.70312 L 22581.29688,-33369.32031 L 22581.27930,-33326.28516 L 22581.23047,-33238.72266 L 22581.16992,-33149.89453 L 22581.13281,-33105.25000 L 22581.09375,-33060.56250 L 22581.05078,-33015.91797 L 22581.00195,-32971.38672 L 22580.94531,-32922.53516 L 22580.88086,-32873.98047 L 22580.82422,-32834.65234 L 22580.76172,-32795.60156" />
    <path d="M 22577.72656,-31720.23438 L 22552.31836,-32442.43750 L 22551.06641,-32452.56250 L 22549.44727,-32461.05859 L 22548.30859,-32465.25391 L 22547.00977,-32468.88672 L 22545.53125,-32471.96484 L 22543.85938,-32474.48047 L 22541.29492,-32476.96484 L 22538.30859,-32478.45312 L 22534.84961,-32478.94922" />
    <path d="M 22534.84961,-32478.94922 L 22531.65625,-32478.75391 L 22528.59961,-32478.17578 L 22525.67578,-32477.22266 L 22522.87695,-32475.89844 L 22520.20312,-32474.21484 L 22517.65039,-32472.17578 L 22515.21289,-32469.78906 L 22512.88672,-32467.06250 L 22510.20703,-32463.30469 L 22507.68164,-32459.07031 L 22504.85742,-32453.39844 L 22502.23633,-32447.08984 L 22499.99805,-32440.74609 L 22497.91406,-32433.90234 L 22495.20117,-32423.31641 L 22492.77344,-32411.79688 L 22490.39258,-32398.00391 L 22488.31445,-32383.19141 L 22486.08203,-32363.02344 L 22484.26562,-32341.44922 L 22482.83008,-32318.59766 L 22481.74219,-32294.60547 L 22480.97461,-32269.59766 L 22480.50000,-32243.70703 L 22480.28320,-32205.05078 L 22480.56445,-32165.19141 L 22481.36133,-32121.25391 L 22482.61133,-32076.80078 L 22484.28711,-32031.75781 L 22486.32227,-31987.07422 L 22488.67383,-31943.17969 L 22491.29492,-31900.47656 L 22494.13867,-31859.36328" />
    <path d="M 22557.34570,-31070.79688 L 22559.54102,-31088.90625 L 22561.58398,-31108.30859 L 22563.47852,-31128.54688 L 22566.06445,-31159.56250 L 22568.33594,-31190.28125 L 22570.27344,-31219.65625 L 22571.81641,-31246.80469 L 22572.64062,-31264.77344 L 22573.15234,-31280.93359 L 22573.28906,-31295.07812 L 22573.06250,-31305.14453 L 22572.46875,-31313.62109 L 22572.01758,-31317.24609 L 22571.45312,-31320.44531 L 22570.68359,-31323.47656 L 22569.75195,-31325.97656 L 22568.62109,-31327.96484 L 22567.29297,-31329.38281 L 22565.81055,-31330.20312 L 22564.11133,-31330.47656" />
    <path d="M 22564.11133,-31330.47656 L 22562.45117,-31330.27344 L 22560.90234,-31329.67969 L 22559.45703,-31328.70703 L 22558.10938,-31327.37109 L 22556.85547,-31325.67969 L 22555.68750,-31323.65234 L 22554.09180,-31320.00391 L 22552.66797,-31315.67188 L 22551.40430,-31310.70312 L 22550.28516,-31305.14062 L 22549.30469,-31299.03125 L 22548.45117,-31292.42578 L 22547.09766,-31277.89844 L 22546.26172,-31263.84375 L 22545.73633,-31248.90625 L 22545.48633,-31229.14844 L 22545.66406,-31208.85156 L 22546.16211,-31190.59375 L 22546.95703,-31172.59766 L 22548.01758,-31155.16406 L 22549.30469,-31138.58594 L 22550.76562,-31123.13672 L 22553.37891,-31100.56250 L 22555.35938,-31085.95312 L 22556.88477,-31074.88672 L 22557.34570,-31070.80078" />
    <path d="M 22494.13867,-31859.36328 L 22491.29492,-31900.47656 L 22488.67383,-31943.17969 L 22486.32227,-31987.07422 L 22484.28711,-32031.75781 L 22482.61133,-32076.80078 L 22481.36133,-32121.25391 L 22480.56445,-32165.19141 L 22480.28320,-32205.05078 L 22480.50000,-32243.70703 L 22480.97461,-32269.59766 L 22481.74219,-32294.60547 L 22482.83008,-32318.59766 L 22484.26562,-32341.44922 L 22486.08203,-32363.02344 L 22488.31445,-32383.19141 L 22490.39258,-32398.00391 L 22492.77344,-32411.79688 L 22495.20117,-32423.31641 L 22497.91406,-32433.90234 L 22499.99805,-32440.74609 L 22502.23633,-32447.08984 L 22504.85742,-32453.39844 L 22507.68164,-32459.07031 L 22510.20703,-32463.30469 L 22512.88672,-32467.06250 L 22515.21289,-32469.78906 L 22517.65039,-32472.17578 L 22520.20312,-32474.21484 L 22522.87695,-32475.89844 L 22525.67578,-32477.22266 L 22528.59961,-32478.17578 L 22531.65625,-32478.75391 L 22534.84961,-32478.94922" />
    <path d="M 22548.01758,-31155.16406 L 22494.13867,-31859.36328" />
    <path d="M 9288.56445,-36695.21875 L 3538.90503,-36695.23438" />
    <path d="M 6564.14551,-43227.03516 L 3412.79736,-45078.13672" />
    <path d="M 9288.56445,-41641.70312 L 6564.14551,-43227.03516" />
    <path d="M -21388.72656,-31720.23438 L -21363.31836,-32442.43750 L -21362.06641,-32452.56250 L -21360.44727,-32461.05859 L -21359.30859,-32465.25391 L -21358.00977,-32468.88672 L -21356.53125,-32471.96484 L -21354.85938,-32474.48047 L -21352.29492,-32476.96484 L -21349.30859,-32478.45312 L -21345.84961,-32478.94922" />
    <path d="M -21391.09180,-33887.70703 L -8099.56445,-41641.70312" />
    <path d="M -5114.52783,-43378.21875 L -8099.56445,-41641.70312" />
    <path d="M -5375.14551,-43227.03516 L -2223.79443,-45078.14062" />
    <path d="M -21345.84961,-32478.94922 L -21342.65625,-32478.75391 L -21339.59961,-32478.17578 L -21336.67578,-32477.22266 L -21333.87695,-32475.89844 L -21331.20312,-32474.21484 L -21328.65039,-32472.17578 L -21326.21289,-32469.78906 L -21323.88672,-32467.06250 L -21321.20703,-32463.30469 L -21318.68164,-32459.07031 L -21315.85742,-32453.39844 L -21313.23633,-32447.08984 L -21310.99805,-32440.74609 L -21308.91406,-32433.90234 L -21306.20117,-32423.31641 L -21303.77344,-32411.79688 L -21301.39258,-32398.00391 L -21299.31445,-32383.19141 L -21297.08203,-32363.02344 L -21295.26562,-32341.44922 L -21293.83008,-32318.59766 L -21292.74219,-32294.60547 L -21291.97461,-32269.59766 L -21291.50000,-32243.70703 L -21291.28320,-32205.05078 L -21291.56445,-32165.19141 L -21292.36133,-32121.25391 L -21293.61133,-32076.80078 L -21295.28711,-32031.75781 L -21297.32227,-31987.07422 L -21299.67383,-31943.17969 L -21302.29492,-31900.47656 L -21305.13867,-31859.36328" />
    <path d="M -21368.34570,-31070.79688 L -21370.54102,-31088.90625 L -21372.58398,-31108.30859 L -21374.47852,-31128.54688 L -21377.06445,-31159.56250 L -21379.33594,-31190.28125 L -21381.27344,-31219.65625 L -21382.81641,-31246.80469 L -21383.64062,-31264.77344 L -21384.15234,-31280.93359 L -21384.28906,-31295.07812 L -21384.06250,-31305.14453 L -21383.46875,-31313.62109 L -21383.01758,-31317.24609 L -21382.45312,-31320.44531 L -21381.68359,-31323.47656 L -21380.75195,-31325.97656 L -21379.62109,-31327.96484 L -21378.29297,-31329.38281 L -21376.81055,-31330.20312 L -21375.11133,-31330.47656" />
    <path d="M -21391.09180,-33887.70703 L -21391.17969,-33887.03516 L -21391.26367,-33885.61328 L -21391.34180,-33883.46484 L -21391.39844,-33881.39062 L -21391.45312,-33878.92188 L -21391.50586,-33876.07031 L -21391.55469,-33872.84375 L -21391.63867,-33866.20312 L -21391.71680,-33858.44531 L -21391.78711,-33849.61328 L -21391.83594,-33842.30469 L -21391.88281,-33834.43359 L -21391.92773,-33826.01562 L -21391.96680,-33817.06250 L -21392.00586,-33807.23438 L -21392.04297,-33796.87500 L -21392.07617,-33785.99609 L -21392.10742,-33774.61719 L -21392.16211,-33750.42578 L -21392.19727,-33731.10156 L -21392.22656,-33710.82422 L -21392.26367,-33678.73828 L -21392.29102,-33644.80859 L -21392.31055,-33610.94531 L -21392.32227,-33575.71094 L -21392.32812,-33535.51953 L -21392.32812,-33494.00391 L -21392.32227,-33453.30859 L -21392.31250,-33411.70312 L -21392.29688,-33369.32031 L -21392.27930,-33326.28516 L -21392.23047,-33238.72266 L -21392.16992,-33149.89453 L -21392.13281,-33105.25000 L -21392.09375,-33060.56250 L -21392.05078,-33015.91797 L -21392.00195,-32971.38672 L -21391.94531,-32922.53516 L -21391.88086,-32873.98047 L -21391.82422,-32834.65234 L -21391.76172,-32795.60156" />
    <path d="M -8099.56445,-36695.21875 L -2349.90601,-36695.23438" />
    <path d="M -21375.11133,-31330.47656 L -21373.45117,-31330.27344 L -21371.90234,-31329.67969 L -21370.45703,-31328.70703 L -21369.10938,-31327.37109 L -21367.85547,-31325.67969 L -21366.68750,-31323.65234 L -21365.09180,-31320.00391 L -21363.66797,-31315.67188 L -21362.40430,-31310.70312 L -21361.28516,-31305.14062 L -21360.30469,-31299.03125 L -21359.45117,-31292.42578 L -21358.09766,-31277.89844 L -21357.26172,-31263.84375 L -21356.73633,-31248.90625 L -21356.48633,-31229.14844 L -21356.66406,-31208.85156 L -21357.16211,-31190.59375 L -21357.95703,-31172.59766 L -21359.01758,-31155.16406 L -21360.30469,-31138.58594 L -21361.76562,-31123.13672 L -21364.37891,-31100.56250 L -21366.35938,-31085.95312 L -21367.88477,-31074.88672 L -21368.34570,-31070.80078" />
    <path d="M -21305.13867,-31859.36328 L -21302.29492,-31900.47656 L -21299.67383,-31943.17969 L -21297.32227,-31987.07422 L -21295.28711,-32031.75781 L -21293.61133,-32076.80078 L -21292.36133,-32121.25391 L -21291.56445,-32165.19141 L -21291.28320,-32205.05078 L -21291.50000,-32243.70703 L -21291.97461,-32269.59766 L -21292.74219,-32294.60547 L -21293.83008,-32318.59766 L -21295.26562,-32341.44922 L -21297.08203,-32363.02344 L -21299.31445,-32383.19141 L -21301.39258,-32398.00391 L -21303.77344,-32411.79688 L -21306.20117,-32423.31641 L -21308.91406,-32433.90234 L -21310.99805,-32440.74609 L -21313.23633,-32447.08984 L -21315.85742,-32453.39844 L -21318.68164,-32459.07031 L -21321.20703,-32463.30469 L -21323.88672,-32467.06250 L -21326.21289,-32469.78906 L -21328.65039,-32472.17578 L -21331.20312,-32474.21484 L -21333.87695,-32475.89844 L -21336.67578,-32477.22266 L -21339.59961,-32478.17578 L -21342.65625,-32478.75391 L -21345.84961,-32478.94922" />
    <path d="M -21359.01758,-31155.16406 L -21305.13867,-31859.36328" />
    <path d="M -21313.63086,-31748.34766 L -8099.56445,-36695.21875" />
    <path d="M -21391.76172,-32795.60156 L -21388.72656,-31720.23438" />
    <path d="M 22502.63086,-31748.34766 L 9288.56445,-36695.21875" />
    <path d="M 22580.76172,-32795.60156 L 22577.72656,-31720.23438" />
    <path d="M -8349.57129,-43596.83984 L -8349.41797,-43596.45312 L -8348.87695,-43596.05469 L -8347.94824,-43595.65625 L -8346.63281,-43595.25000 L -8344.92969,-43594.83594 L -8342.83887,-43594.41406 L -8340.36230,-43593.98438 L -8337.50098,-43593.55469 L -8334.25391,-43593.11719 L -8330.62305,-43592.67188 L -8326.60938,-43592.21875 L -8322.21387,-43591.76562 L -8317.43750,-43591.30469 L -8312.28223,-43590.83984 L -8306.74902,-43590.37109 L -8300.83887,-43589.89844 L -8294.55469,-43589.41406 L -8287.89844,-43588.93359 L -8280.87012,-43588.44531 L -8273.47266,-43587.95312 L -8265.70898,-43587.45703 L -8257.58008,-43586.96094 L -8249.08984,-43586.45312 L -8240.23926,-43585.94922 L -8231.03125,-43585.43750 L -8221.46777,-43584.92969 L -8211.55371,-43584.41406 L -8201.29004,-43583.89453 L -8190.68066,-43583.37500 L -8179.72754,-43582.85156 L -8168.43555,-43582.32812 L -8156.80664,-43581.80469 L -8144.84570,-43581.27344 L -8132.55469,-43580.74219 L -8119.93750,-43580.21094 L -8106.99805,-43579.67969 L -8093.74121,-43579.14844 L -8080.16992,-43578.60938 L -8066.28809,-43578.07812 L -8052.09961,-43577.53906 L -8037.61035,-43577.00391 L -8022.82324,-43576.46875 L -8007.74316,-43575.92969 L -7992.37500,-43575.39062 L -7977.34863,-43574.87500 L -7962.06641,-43574.35938 L -7946.52930,-43573.84375 L -7930.74512,-43573.32812 L -7914.71582,-43572.81250 L -7898.44629,-43572.30078 L -7881.94238,-43571.78906 L -7865.20898,-43571.27344 L -7848.24902,-43570.76172 L -7831.06934,-43570.25000 L -7813.67285,-43569.74219 L -7796.06738,-43569.23047 L -7778.25488,-43568.71875 L -7760.24316,-43568.21094 L -7742.03711,-43567.70703 L -7723.64062,-43567.20312 L -7705.06055,-43566.69531 L -7686.30176,-43566.19531 L -7667.37109,-43565.68750 L -7648.27246,-43565.18750 L -7629.01172,-43564.68750 L -7609.59668,-43564.18750 L -7590.03125,-43563.68750 L -7570.32227,-43563.19531 L -7552.28516,-43562.74219 L -7534.13916,-43562.28906 L -7515.88867,-43561.83984 L -7497.53809,-43561.39062 L -7479.09277,-43560.94141 L -7460.55713,-43560.49219 L -7441.93604,-43560.04297 L -7423.23438,-43559.59375 L -7404.45703,-43559.14844 L -7385.60889,-43558.69531 L -7366.69531,-43558.25000 L -7347.72119,-43557.79688 L -7320.35840,-43557.15625" />
    <path d="M -5884.03418,-43553.80469 L -5884.20068,-43553.42188 L -5884.75488,-43553.04688 L -5885.69678,-43552.67969 L -5887.02637,-43552.31641 L -5888.74316,-43551.96094 L -5890.84668,-43551.61328 L -5893.33643,-43551.27344 L -5896.21191,-43550.94141 L -5899.47217,-43550.61719 L -5903.11621,-43550.29688 L -5907.14307,-43549.98828 L -5911.55176,-43549.68750 L -5916.34082,-43549.39453 L -5921.50977,-43549.10938 L -5927.05615,-43548.83203 L -5932.97852,-43548.56250 L -5939.27588,-43548.30469 L -5945.94580,-43548.05469 L -5952.98633,-43547.81250 L -5960.39600,-43547.57812 L -5968.17236,-43547.35156 L -5976.31348,-43547.14062 L -5984.81689,-43546.92969 L -5993.67969,-43546.73438 L -6002.89990,-43546.54688 L -6012.47461,-43546.36719 L -6022.40137,-43546.20312 L -6032.67676,-43546.03906 L -6043.29785,-43545.89062 L -6054.26172,-43545.75000 L -6065.56543,-43545.62500 L -6077.20557,-43545.50000 L -6089.17822,-43545.39062 L -6101.48047,-43545.28906 L -6114.10791,-43545.20312 L -6127.05762,-43545.12109 L -6140.32568,-43545.04688 L -6153.90771,-43544.98828 L -6167.79932,-43544.93750 L -6181.99756,-43544.89844 L -6196.49707,-43544.86719 L -6211.29395,-43544.84766 L -6226.38330,-43544.83594 L -6241.76123,-43544.83594 L -6256.79590,-43544.84375 L -6272.08789,-43544.86328 L -6287.63232,-43544.89062 L -6303.42578,-43544.92578 L -6319.46338,-43544.96875 L -6335.74023,-43545.02344 L -6352.25195,-43545.08594 L -6368.99365,-43545.15625 L -6385.96094,-43545.23828 L -6403.14844,-43545.32812 L -6420.55127,-43545.42188 L -6438.16455,-43545.52734 L -6455.98340,-43545.64062 L -6474.00195,-43545.76172 L -6492.21484,-43545.89062 L -6510.61768,-43546.02734 L -6529.20361,-43546.17188 L -6547.96875,-43546.32031 L -6566.90625,-43546.48047 L -6586.01074,-43546.64844 L -6605.27637,-43546.82031 L -6624.69775,-43547.00000 L -6644.26855,-43547.17969 L -6663.98291,-43547.37500 L -6682.02441,-43547.55078 L -6700.17529,-43547.73438 L -6718.43018,-43547.92188 L -6736.78516,-43548.10938 L -6755.23486,-43548.30469 L -6773.77539,-43548.50391 L -6792.40039,-43548.70312 L -6811.10645,-43548.91016 L -6829.88818,-43549.11719 L -6848.74023,-43549.32812 L -6867.65820,-43549.53906 L -6886.63623,-43549.75000 L -6914.00537,-43550.06250" />
    <path d="M 22573.06250,-31305.14453 L 22577.72656,-31720.23438" />
    <path d="M -21388.72656,-31720.23438 L -21384.28906,-31295.07812" />
    <path d="M 7073.03418,-43553.80469 L 7073.20068,-43553.42188 L 7073.75488,-43553.04688 L 7074.69678,-43552.67969 L 7076.02637,-43552.31641 L 7077.74316,-43551.96094 L 7079.84668,-43551.61328 L 7082.33643,-43551.27344 L 7085.21191,-43550.94141 L 7088.47217,-43550.61719 L 7092.11621,-43550.29688 L 7096.14307,-43549.98828 L 7100.55176,-43549.68750 L 7105.34082,-43549.39453 L 7110.50977,-43549.10938 L 7116.05615,-43548.83203 L 7121.97852,-43548.56250 L 7128.27588,-43548.30469 L 7134.94580,-43548.05469 L 7141.98633,-43547.81250 L 7149.39600,-43547.57812 L 7157.17236,-43547.35156 L 7165.31348,-43547.14062 L 7173.81689,-43546.92969 L 7182.67969,-43546.73438 L 7191.89990,-43546.54688 L 7201.47461,-43546.36719 L 7211.40137,-43546.20312 L 7221.67676,-43546.03906 L 7232.29785,-43545.89062 L 7243.26172,-43545.75000 L 7254.56543,-43545.62500 L 7266.20557,-43545.50000 L 7278.17822,-43545.39062 L 7290.48047,-43545.28906 L 7303.10791,-43545.20312 L 7316.05762,-43545.12109 L 7329.32568,-43545.04688 L 7342.90771,-43544.98828 L 7356.79932,-43544.93750 L 7370.99756,-43544.89844 L 7385.49707,-43544.86719 L 7400.29395,-43544.84766 L 7415.38330,-43544.83594 L 7430.76123,-43544.83594 L 7445.79590,-43544.84375 L 7461.08789,-43544.86328 L 7476.63232,-43544.89062 L 7492.42578,-43544.92578 L 7508.46338,-43544.96875 L 7524.74023,-43545.02344 L 7541.25195,-43545.08594 L 7557.99365,-43545.15625 L 7574.96094,-43545.23828 L 7592.14844,-43545.32812 L 7609.55127,-43545.42188 L 7627.16455,-43545.52734 L 7644.98340,-43545.64062 L 7663.00195,-43545.76172 L 7681.21484,-43545.89062 L 7699.61768,-43546.02734 L 7718.20361,-43546.17188 L 7736.96875,-43546.32031 L 7755.90625,-43546.48047 L 7775.01074,-43546.64844 L 7794.27637,-43546.82031 L 7813.69775,-43547.00000 L 7833.26855,-43547.17969 L 7852.98291,-43547.37500 L 7871.02441,-43547.55078 L 7889.17529,-43547.73438 L 7907.43018,-43547.92188 L 7925.78516,-43548.10938 L 7944.23486,-43548.30469 L 7962.77539,-43548.50391 L 7981.40039,-43548.70312 L 8000.10645,-43548.91016 L 8018.88818,-43549.11719 L 8037.74023,-43549.32812 L 8056.65820,-43549.53906 L 8075.63623,-43549.75000 L 8103.00488,-43550.06250" />
    <path d="M 9538.57129,-43596.83984 L 9538.41797,-43596.45312 L 9537.87695,-43596.05469 L 9536.94824,-43595.65625 L 9535.63281,-43595.25000 L 9533.92969,-43594.83594 L 9531.83887,-43594.41406 L 9529.36230,-43593.98438 L 9526.50098,-43593.55469 L 9523.25391,-43593.11719 L 9519.62305,-43592.67188 L 9515.60938,-43592.21875 L 9511.21387,-43591.76562 L 9506.43750,-43591.30469 L 9501.28223,-43590.83984 L 9495.74902,-43590.37109 L 9489.83887,-43589.89844 L 9483.55469,-43589.41406 L 9476.89844,-43588.93359 L 9469.87012,-43588.44531 L 9462.47266,-43587.95312 L 9454.70898,-43587.45703 L 9446.58008,-43586.96094 L 9438.08984,-43586.45312 L 9429.23926,-43585.94922 L 9420.03125,-43585.43750 L 9410.46777,-43584.92969 L 9400.55371,-43584.41406 L 9390.29004,-43583.89453 L 9379.68066,-43583.37500 L 9368.72754,-43582.85156 L 9357.43555,-43582.32812 L 9345.80664,-43581.80469 L 9333.84570,-43581.27344 L 9321.55469,-43580.74219 L 9308.93750,-43580.21094 L 9295.99805,-43579.67969 L 9282.74121,-43579.14844 L 9269.16992,-43578.60938 L 9255.28809,-43578.07812 L 9241.09961,-43577.53906 L 9226.61035,-43577.00391 L 9211.82324,-43576.46875 L 9196.74316,-43575.92969 L 9181.37500,-43575.39062 L 9166.34863,-43574.87500 L 9151.06641,-43574.35938 L 9135.52930,-43573.84375 L 9119.74512,-43573.32812 L 9103.71582,-43572.81250 L 9087.44629,-43572.30078 L 9070.94238,-43571.78906 L 9054.20898,-43571.27344 L 9037.24902,-43570.76172 L 9020.06934,-43570.25000 L 9002.67285,-43569.74219 L 8985.06738,-43569.23047 L 8967.25488,-43568.71875 L 8949.24316,-43568.21094 L 8931.03711,-43567.70703 L 8912.64062,-43567.20312 L 8894.06055,-43566.69531 L 8875.30176,-43566.19531 L 8856.37109,-43565.68750 L 8837.27246,-43565.18750 L 8818.01172,-43564.68750 L 8798.59668,-43564.18750 L 8779.03125,-43563.68750 L 8759.32227,-43563.19531 L 8741.28516,-43562.74219 L 8723.13867,-43562.28906 L 8704.88867,-43561.83984 L 8686.53809,-43561.39062 L 8668.09277,-43560.94141 L 8649.55664,-43560.49219 L 8630.93555,-43560.04297 L 8612.23438,-43559.59375 L 8593.45703,-43559.14844 L 8574.60938,-43558.69531 L 8555.69531,-43558.25000 L 8536.72070,-43557.79688 L 8509.35840,-43557.15625" />
    <path d="M -7086.30119,-45124.24158 L -7099.11809,-45124.90110 L -7111.88010,-45126.87683 L -7124.53259,-45130.16032 L -7137.02136,-45134.73751 L -7149.29294,-45140.58879 L -7161.29478,-45147.68911 L -7172.97548,-45156.00806 L -7184.28503,-45165.51002 L -7195.17500,-45176.15431 L -7205.59876,-45187.89533 L -7215.51167,-45200.68282 L -7224.87127,-45214.46202 L -7233.63750,-45229.17392 L -7241.77281,-45244.75552 L -7249.24237,-45261.14011 L -7256.01419,-45278.25751 L -7262.05927,-45296.03443 L -7267.35173,-45314.39475 L -7271.86890,-45333.25984 L -7275.59144,-45352.54893 L -7278.50342,-45372.17940 L -7280.59235,-45392.06721 L -7281.84930,-45412.12719 L -7282.26888,-45432.27344 L -7281.84930,-45452.41968 L -7280.59235,-45472.47966 L -7278.50342,-45492.36747 L -7275.59144,-45511.99795 L -7271.86890,-45531.28703 L -7267.35173,-45550.15213 L -7262.05927,-45568.51244 L -7256.01419,-45586.28937 L -7249.24237,-45603.40677 L -7241.77281,-45619.79135 L -7233.63750,-45635.37295 L -7224.87127,-45650.08485 L -7215.51167,-45663.86405 L -7205.59876,-45676.65154 L -7195.17500,-45688.39257 L -7184.28503,-45699.03685 L -7172.97548,-45708.53882 L -7161.29478,-45716.85777 L -7149.29294,-45723.95809 L -7137.02136,-45729.80937 L -7124.53259,-45734.38655 L -7111.88010,-45737.67004 L -7099.11809,-45739.64578 L -7086.30119,-45740.30530 L -7073.48429,-45739.64578 L -7060.72227,-45737.67004 L -7048.06979,-45734.38655 L -7035.58102,-45729.80937 L -7023.30944,-45723.95809 L -7011.30760,-45716.85777 L -6999.62689,-45708.53882 L -6988.31734,-45699.03685 L -6977.42737,-45688.39257 L -6967.00362,-45676.65154 L -6957.09071,-45663.86405 L -6947.73110,-45650.08485 L -6938.96488,-45635.37295 L -6930.82956,-45619.79135 L -6923.36001,-45603.40677 L -6916.58819,-45586.28937 L -6910.54311,-45568.51244 L -6905.25065,-45550.15213 L -6900.73348,-45531.28703 L -6897.01093,-45511.99795 L -6894.09896,-45492.36747 L -6892.01003,-45472.47966 L -6890.75308,-45452.41968 L -6890.33350,-45432.27344 L -6890.75308,-45412.12719 L -6892.01003,-45392.06721 L -6894.09896,-45372.17940 L -6897.01093,-45352.54893 L -6900.73348,-45333.25984 L -6905.25065,-45314.39475 L -6910.54311,-45296.03443 L -6916.58819,-45278.25751 L -6923.36001,-45261.14011 L -6930.82956,-45244.75552 L -6938.96488,-45229.17392 L -6947.73110,-45214.46202 L -6957.09071,-45200.68282 L -6967.00362,-45187.89533 L -6977.42737,-45176.15431 L -6988.31734,-45165.51002 L -6999.62689,-45156.00806 L -7011.30760,-45147.68911 L -7023.30944,-45140.58879 L -7035.58102,-45134.73751 L -7048.06979,-45130.16032 L -7060.72227,-45126.87683 L -7073.48429,-45124.90110 L -7086.30119,-45124.24158" />
    <path d="M 8273.91281,-45740.27344 L 8286.63891,-45739.61399 L 8299.31051,-45737.63845 L 8311.87335,-45734.35530 L 8324.27364,-45729.77859 L 8336.45828,-45723.92792 L 8348.37509,-45716.82833 L 8359.97304,-45708.51024 L 8371.20247,-45699.00926 L 8382.01529,-45688.36608 L 8392.36519,-45676.62627 L 8402.20787,-45663.84010 L 8411.50116,-45650.06233 L 8420.20528,-45635.35195 L 8428.28296,-45619.77196 L 8435.69960,-45603.38907 L 8442.42344,-45586.27344 L 8448.42569,-45568.49835 L 8453.68066,-45550.13993 L 8458.16583,-45531.27679 L 8461.86200,-45511.98970 L 8464.75334,-45492.36126 L 8466.82747,-45472.47550 L 8468.07552,-45452.41760 L 8468.49213,-45432.27344 L 8468.07552,-45412.12927 L 8466.82747,-45392.07137 L 8464.75334,-45372.18562 L 8461.86200,-45352.55717 L 8458.16583,-45333.27008 L 8453.68066,-45314.40694 L 8448.42569,-45296.04852 L 8442.42344,-45278.27344 L 8435.69960,-45261.15781 L 8428.28296,-45244.77492 L 8420.20528,-45229.19493 L 8411.50116,-45214.48455 L 8402.20787,-45200.70678 L 8392.36519,-45187.92061 L 8382.01529,-45176.18080 L 8371.20247,-45165.53761 L 8359.97304,-45156.03663 L 8348.37509,-45147.71854 L 8336.45828,-45140.61896 L 8324.27364,-45134.76828 L 8311.87335,-45130.19157 L 8299.31051,-45126.90842 L 8286.63891,-45124.93289 L 8273.91281,-45124.27344 L 8261.18671,-45124.93289 L 8248.51511,-45126.90842 L 8235.95227,-45130.19157 L 8223.55198,-45134.76828 L 8211.36734,-45140.61896 L 8199.45053,-45147.71854 L 8187.85258,-45156.03663 L 8176.62315,-45165.53761 L 8165.81034,-45176.18080 L 8155.46043,-45187.92061 L 8145.61775,-45200.70678 L 8136.32446,-45214.48455 L 8127.62034,-45229.19493 L 8119.54266,-45244.77492 L 8112.12602,-45261.15781 L 8105.40218,-45278.27344 L 8099.39993,-45296.04852 L 8094.14496,-45314.40694 L 8089.65980,-45333.27008 L 8085.96363,-45352.55717 L 8083.07228,-45372.18562 L 8080.99815,-45392.07137 L 8079.75011,-45412.12927 L 8079.33350,-45432.27344 L 8079.75011,-45452.41760 L 8080.99815,-45472.47550 L 8083.07228,-45492.36126 L 8085.96363,-45511.98970 L 8089.65980,-45531.27679 L 8094.14496,-45550.13993 L 8099.39993,-45568.49835 L 8105.40218,-45586.27344 L 8112.12602,-45603.38907 L 8119.54266,-45619.77196 L 8127.62034,-45635.35195 L 8136.32446,-45650.06233 L 8145.61775,-45663.84010 L 8155.46043,-45676.62627 L 8165.81034,-45688.36608 L 8176.62315,-45699.00926 L 8187.85258,-45708.51024 L 8199.45053,-45716.82833 L 8211.36734,-45723.92792 L 8223.55198,-45729.77859 L 8235.95227,-45734.35530 L 8248.51511,-45737.63845 L 8261.18671,-45739.61399 L 8273.91281,-45740.27344" />
    <path d="M 1371.91919,-59680.73047 L 1329.92847,-59750.24219 L 1300.19067,-59797.35938 L 1298.06714,-59800.61719 L 1269.63354,-59844.08984 L 1265.29846,-59850.54688 L 1238.23047,-59890.40234 L 1231.52490,-59899.99219 L 1214.26685,-59924.50391 L 1205.98584,-59936.22656 L 1196.76904,-59948.85156 L 1172.93201,-59981.44922 L 1139.14282,-60025.95312" />
    <path d="M 590.42764,-13840.82269 L 590.07597,-13843.82657" />
    <path d="M 597.04352,-13765.71094 L 590.78494,-13836.74633" />
    <path d="M 660.65515,-14375.21518 L 662.46869,-14392.57031 L 667.01434,-14437.32812" />
    <path d="M 666.32661,-14430.55651 L 670.19116,-14466.78906 L 676.96130,-14530.12109 L 680.67694,-14564.34375 L 685.15861,-14606.38007" />
    <path d="M 655.64902,-14324.91304 L 660.65515,-14375.21518" />
    <path d="M 623.33410,-13998.57394 L 623.59979,-14000.75781 L 628.34332,-14043.52344 L 633.94983,-14097.87891 L 637.67151,-14136.03516 L 641.15125,-14172.37891 L 648.88348,-14254.00391 L 650.20276,-14267.68359 L 655.64902,-14324.91304" />
    <path d="M 603.89529,-13845.63535 L 604.65216,-13852.01953 L 608.21277,-13879.16406 L 609.47968,-13888.43750 L 611.64410,-13904.61719 L 614.80634,-13928.26953 L 617.19739,-13947.13672 L 620.66565,-13975.30469 L 623.33410,-13998.57394" />
    <path d="M 601.38287,-13822.23602 L 603.89529,-13845.63535" />
    <path d="M 599.88871,-13806.59237 L 601.38287,-13822.23602" />
    <path d="M 685.15861,-14606.38007 L 699.13928,-14605.73047 L 708.78485,-14605.40234 L 717.42651,-14605.06641 L 726.11572,-14604.67969 L 734.82178,-14604.23828 L 743.51074,-14603.74609 L 752.14667,-14603.19531 L 760.69226,-14602.58984 L 767.43793,-14602.06641 L 774.08160,-14601.50391 L 780.60370,-14600.90625 L 786.98486,-14600.27344 L 793.20605,-14599.60156 L 799.24902,-14598.89844 L 805.09595,-14598.15625 L 810.72986,-14597.37891 L 816.13458,-14596.57031 L 821.29492,-14595.73047 L 829.69556,-14594.18359 L 837.23706,-14592.54688 L 843.86218,-14590.83203 L 849.52502,-14589.04688 L 854.19128,-14587.19922 L 857.30139,-14585.62109 L 859.69586,-14584.01172 L 861.37244,-14582.38281 L 862.16034,-14581.15234 L 862.54895,-14579.91406 L 862.54254,-14578.67188 L 862.14697,-14577.43359 L 861.39246,-14576.22266 L 860.28162,-14575.01953 L 859.08630,-14573.77734" />
    <path d="M 685.15861,-14606.38007 L 688.41553,-14636.07031 L 694.14862,-14690.03906" />
    <path d="M -7523.93457,-16028.60156 L -7523.57422,-16033.12500 L -7523.51318,-16033.78906 L -7523.17139,-16036.58203 L -7522.89258,-16038.63281 L -7522.54102,-16041.10156 L -7522.22949,-16043.22656 L -7521.87646,-16045.57812 L -7521.48145,-16048.14844 L -7521.04395,-16050.93750 L -7520.56445,-16053.93750 L -7520.04199,-16057.14844 L -7518.86768,-16064.16797 L -7517.51855,-16071.96094 L -7515.99268,-16080.49609 L -7512.39990,-16099.62109 L -7508.07080,-16121.24609 L -7502.98584,-16145.07031 L -7497.12646,-16170.80078 L -7490.47314,-16198.13672 L -7483.00732,-16226.78125 L -7474.70996,-16256.42969 L -7467.42578,-16280.78516 L -7459.58203,-16305.44531 L -7452.32617,-16326.94141 L -7444.63672,-16348.44531 L -7432.82178,-16379.14062 L -7426.56836,-16394.32812 L -7420.08008,-16409.35547 L -7413.35596,-16424.18750 L -7406.39258,-16438.78906 L -7399.18848,-16453.11719 L -7391.74023,-16467.14062 L -7383.85596,-16481.14844 L -7375.71094,-16494.75000 L -7367.70801,-16507.29688 L -7359.46436,-16519.41016 L -7352.02148,-16529.66406 L -7344.38965,-16539.52734 L -7333.91650,-16552.04297 L -7323.10059,-16563.77344 L -7311.93896,-16574.66406 L -7305.07422,-16580.76953 L -7298.08301,-16586.54297 L -7290.96387,-16591.96875 L -7283.71680,-16597.03906 L -7237.50000,-16615.54297" />
    <path d="M 8712.93457,-16028.60156 L 8712.17188,-16036.58203 L 8711.89258,-16038.63281 L 8711.54102,-16041.10156 L 8711.22949,-16043.22656 L 8710.87695,-16045.57812 L 8710.48145,-16048.14844 L 8710.04395,-16050.93750 L 8709.56445,-16053.93750 L 8709.04199,-16057.14844 L 8707.86719,-16064.16797 L 8706.51855,-16071.96094 L 8704.99219,-16080.49609 L 8701.40039,-16099.62109 L 8697.07031,-16121.24609 L 8691.98633,-16145.07031 L 8686.12695,-16170.80078 L 8679.47266,-16198.13672 L 8672.00781,-16226.78125 L 8663.70996,-16256.42969 L 8656.42578,-16280.78516 L 8648.58203,-16305.44531 L 8641.32617,-16326.94141 L 8633.63672,-16348.44531 L 8621.82227,-16379.14062 L 8615.56836,-16394.32812 L 8609.08008,-16409.35547 L 8602.35547,-16424.18750 L 8595.39258,-16438.78906 L 8588.18848,-16453.11719 L 8580.74023,-16467.14062 L 8572.85547,-16481.14844 L 8564.71094,-16494.75000 L 8556.70801,-16507.29688 L 8548.46484,-16519.41016 L 8541.02148,-16529.66406 L 8533.38965,-16539.52734 L 8522.91602,-16552.04297 L 8512.10059,-16563.77344 L 8500.93945,-16574.66406 L 8494.07422,-16580.76953 L 8487.08301,-16586.54297 L 8479.96387,-16591.96875 L 8472.71680,-16597.03906 L 8426.50000,-16615.54297" />
    <path d="M 9489.26563,-47716.96875 L 9489.41471,-47716.89814 L 9489.56333,-47716.82655 L 9489.71147,-47716.75397 L 9489.85912,-47716.68043 L 9490.00629,-47716.60591 L 9490.15297,-47716.53041 L 9490.29914,-47716.45396 L 9490.44481,-47716.37654 L 9490.58996,-47716.29816 L 9490.73459,-47716.21882 L 9490.87869,-47716.13853 L 9491.02227,-47716.05730 L 9491.16530,-47715.97511 L 9491.30778,-47715.89199 L 9491.44972,-47715.80792 L 9491.59110,-47715.72292 L 9491.73191,-47715.63699 L 9491.87215,-47715.55014 L 9492.01182,-47715.46236 L 9492.15090,-47715.37365 L 9492.28940,-47715.28404 L 9492.42730,-47715.19351 L 9492.56460,-47715.10207 L 9492.70129,-47715.00973 L 9492.83738,-47714.91649 L 9492.97284,-47714.82235 L 9493.10768,-47714.72732 L 9493.24189,-47714.63140 L 9493.37546,-47714.53460 L 9493.50839,-47714.43692 L 9493.64068,-47714.33837 L 9493.77231,-47714.23894 L 9493.90328,-47714.13865 L 9494.03359,-47714.03750 L 9494.16323,-47713.93548 L 9494.29219,-47713.83262 L 9494.42046,-47713.72890 L 9494.54806,-47713.62434 L 9494.67496,-47713.51894 L 9494.80116,-47713.41271 L 9494.92665,-47713.30565 L 9495.05144,-47713.19776 L 9495.17551,-47713.08904 L 9495.29887,-47712.97952 L 9495.42149,-47712.86918 L 9495.54339,-47712.75803 L 9495.66455,-47712.64608 L 9495.78497,-47712.53334 L 9495.90464,-47712.41980 L 9496.02356,-47712.30547 L 9496.14172,-47712.19037 L 9496.25913,-47712.07448 L 9496.37576,-47711.95782 L 9496.49162,-47711.84040 L 9496.60670,-47711.72221 L 9496.72100,-47711.60327 L 9496.83452,-47711.48357 L 9496.94724,-47711.36313 L 9497.05916,-47711.24195 L 9497.17029,-47711.12003 L 9497.28060,-47710.99738 L 9497.39010,-47710.87401 L 9497.49879,-47710.74991 L 9497.60666,-47710.62510 L 9497.71369,-47710.49958 L 9497.81990,-47710.37336 L 9497.92528,-47710.24644 L 9498.02981,-47710.11883 L 9498.13350,-47709.99053 L 9498.23634,-47709.86155 L 9498.33832,-47709.73189 L 9498.43945,-47709.60156" />
    <path d="M 6969.60791,-47665.46094 L 6969.70575,-47665.59355 L 6969.80442,-47665.72554 L 6969.90393,-47665.85690 L 6970.00426,-47665.98764 L 6970.10541,-47666.11774 L 6970.20738,-47666.24720 L 6970.31017,-47666.37601 L 6970.41376,-47666.50418 L 6970.51816,-47666.63169 L 6970.62337,-47666.75853 L 6970.72937,-47666.88472 L 6970.83616,-47667.01023 L 6970.94375,-47667.13506 L 6971.05211,-47667.25921 L 6971.16126,-47667.38268 L 6971.27119,-47667.50546 L 6971.38189,-47667.62754 L 6971.49335,-47667.74892 L 6971.60558,-47667.86960 L 6971.71857,-47667.98957 L 6971.83231,-47668.10882 L 6971.94680,-47668.22735 L 6972.06204,-47668.34516 L 6972.17801,-47668.46224 L 6972.29473,-47668.57858 L 6972.41217,-47668.69419 L 6972.53034,-47668.80905 L 6972.64923,-47668.92317 L 6972.76884,-47669.03653 L 6972.88916,-47669.14914 L 6973.01019,-47669.26099 L 6973.13192,-47669.37207 L 6973.25436,-47669.48238 L 6973.37748,-47669.59192 L 6973.50129,-47669.70068 L 6973.62579,-47669.80866 L 6973.75096,-47669.91585 L 6973.87681,-47670.02224 L 6974.00332,-47670.12785 L 6974.13050,-47670.23265 L 6974.25834,-47670.33665 L 6974.38683,-47670.43984 L 6974.51596,-47670.54222 L 6974.64574,-47670.64378 L 6974.77616,-47670.74452 L 6974.90722,-47670.84444 L 6975.03889,-47670.94353 L 6975.17120,-47671.04178 L 6975.30411,-47671.13921 L 6975.43764,-47671.23579 L 6975.57178,-47671.33152 L 6975.70652,-47671.42641 L 6975.84185,-47671.52045 L 6975.97777,-47671.61363 L 6976.11428,-47671.70596 L 6976.25137,-47671.79742 L 6976.38903,-47671.88801 L 6976.52726,-47671.97774 L 6976.66605,-47672.06659 L 6976.80540,-47672.15456 L 6976.94530,-47672.24166 L 6977.08575,-47672.32787 L 6977.22674,-47672.41319 L 6977.36826,-47672.49762 L 6977.51032,-47672.58116 L 6977.65289,-47672.66380 L 6977.79599,-47672.74554 L 6977.93960,-47672.82638 L 6978.08371,-47672.90631 L 6978.22833,-47672.98533 L 6978.37344,-47673.06344 L 6978.51904,-47673.14063" />
    <path d="M -8300.26562,-47716.96875 L -8300.39142,-47716.86444 L -8300.51727,-47716.76018 L -8300.64316,-47716.65598 L -8300.76909,-47716.55183 L -8300.89508,-47716.44774 L -8301.02111,-47716.34371 L -8301.14718,-47716.23973 L -8301.27330,-47716.13580 L -8301.39947,-47716.03194 L -8301.52568,-47715.92812 L -8301.65194,-47715.82437 L -8301.77824,-47715.72067 L -8301.90459,-47715.61702 L -8302.03099,-47715.51343 L -8302.15743,-47715.40990 L -8302.28392,-47715.30643 L -8302.41045,-47715.20300 L -8302.53703,-47715.09964 L -8302.66365,-47714.99633 L -8302.79032,-47714.89308 L -8302.91704,-47714.78988 L -8303.04380,-47714.68674 L -8303.17061,-47714.58366 L -8303.29746,-47714.48063 L -8303.42436,-47714.37765 L -8303.55130,-47714.27474 L -8303.67829,-47714.17188 L -8303.80532,-47714.06907 L -8303.93240,-47713.96632 L -8304.05953,-47713.86363 L -8304.18670,-47713.76100 L -8304.31391,-47713.65842 L -8304.44118,-47713.55589 L -8304.56848,-47713.45343 L -8304.69583,-47713.35102 L -8304.82323,-47713.24866 L -8304.95067,-47713.14636 L -8305.07816,-47713.04412 L -8305.20569,-47712.94194 L -8305.33327,-47712.83981 L -8305.46089,-47712.73773 L -8305.58856,-47712.63572 L -8305.71627,-47712.53376 L -8305.84403,-47712.43185 L -8305.97184,-47712.33001 L -8306.09968,-47712.22822 L -8306.22758,-47712.12648 L -8306.35552,-47712.02481 L -8306.48350,-47711.92318 L -8306.61153,-47711.82162 L -8306.73960,-47711.72011 L -8306.86772,-47711.61866 L -8306.99588,-47711.51727 L -8307.12409,-47711.41593 L -8307.25234,-47711.31465 L -8307.38064,-47711.21342 L -8307.50898,-47711.11226 L -8307.63736,-47711.01115 L -8307.76580,-47710.91009 L -8307.89427,-47710.80909 L -8308.02279,-47710.70815 L -8308.15136,-47710.60727 L -8308.27997,-47710.50644 L -8308.40862,-47710.40567 L -8308.53732,-47710.30496 L -8308.66606,-47710.20430 L -8308.79485,-47710.10370 L -8308.92368,-47710.00316 L -8309.05256,-47709.90268 L -8309.18148,-47709.80225 L -8309.31044,-47709.70188 L -8309.43945,-47709.60156" />
    <path d="M -5789.51904,-47673.14062 L -5789.37926,-47673.05465 L -5789.23987,-47672.96806 L -5789.10086,-47672.88083 L -5788.96226,-47672.79298 L -5788.82405,-47672.70450 L -5788.68624,-47672.61541 L -5788.54883,-47672.52569 L -5788.41183,-47672.43536 L -5788.27523,-47672.34440 L -5788.13905,-47672.25284 L -5788.00328,-47672.16066 L -5787.86793,-47672.06787 L -5787.73299,-47671.97448 L -5787.59848,-47671.88047 L -5787.46439,-47671.78586 L -5787.33074,-47671.69065 L -5787.19751,-47671.59484 L -5787.06471,-47671.49843 L -5786.93235,-47671.40142 L -5786.80043,-47671.30381 L -5786.66895,-47671.20562 L -5786.53791,-47671.10683 L -5786.40732,-47671.00745 L -5786.27718,-47670.90748 L -5786.14749,-47670.80693 L -5786.01825,-47670.70580 L -5785.88947,-47670.60408 L -5785.76115,-47670.50179 L -5785.63330,-47670.39892 L -5785.50590,-47670.29547 L -5785.37898,-47670.19145 L -5785.25252,-47670.08686 L -5785.12654,-47669.98171 L -5785.00103,-47669.87598 L -5784.87600,-47669.76969 L -5784.75145,-47669.66284 L -5784.62738,-47669.55543 L -5784.50380,-47669.44746 L -5784.38070,-47669.33894 L -5784.25810,-47669.22986 L -5784.13599,-47669.12023 L -5784.01437,-47669.01005 L -5783.89325,-47668.89933 L -5783.77263,-47668.78806 L -5783.65251,-47668.67625 L -5783.53290,-47668.56390 L -5783.41379,-47668.45101 L -5783.29520,-47668.33758 L -5783.17711,-47668.22363 L -5783.05954,-47668.10914 L -5782.94249,-47667.99412 L -5782.82596,-47667.87858 L -5782.70995,-47667.76251 L -5782.59446,-47667.64593 L -5782.47950,-47667.52882 L -5782.36507,-47667.41120 L -5782.25116,-47667.29306 L -5782.13780,-47667.17441 L -5782.02496,-47667.05525 L -5781.91267,-47666.93559 L -5781.80092,-47666.81541 L -5781.68970,-47666.69474 L -5781.57904,-47666.57357 L -5781.46892,-47666.45190 L -5781.35934,-47666.32973 L -5781.25033,-47666.20708 L -5781.14186,-47666.08393 L -5781.03395,-47665.96030 L -5780.92660,-47665.83618 L -5780.81980,-47665.71158 L -5780.71358,-47665.58650 L -5780.60791,-47665.46094" />
  </g>
</svg>
